<svg width="191" height="186" viewBox="0 0 191 186" fill="none" xmlns="http://www.w3.org/2000/svg">
<g clip-path="url(#clip0_1897_157)">
<path d="M98.4733 0.771608C49.5789 -0.671697 7.22172 34.7258 0.825525 81.1776C-6.17472 131.959 32.3367 177.653 79.7142 184.969C138.649 194.075 195.806 141.411 190.678 84.2837C186.812 41.2373 148.173 2.23487 98.4733 0.771608Z" fill="#F4F7FA"/>
<path d="M180.517 168.501C180.557 168.501 180.584 168.747 180.584 168.893C180.584 172.199 169.389 174.853 155.59 174.853C143.623 174.853 133.622 172.904 131.173 170.124H130.723C130.723 170.124 130.723 169.545 130.723 168.454V78.1248C130.723 73.4756 144.039 58.4041 153.173 48.6668C153.341 48.4938 153.475 48.3143 153.636 48.1413C155.885 45.7469 157.831 43.705 159.227 42.2617L159.261 42.2151C160.63 40.8117 161.435 39.9937 161.435 39.9937L162.308 40.4725L163.409 41.0778L164.509 41.6831L165.469 42.2085L165.61 42.2883L166.704 42.8869L167.805 43.4922L168.905 44.0974L170.006 44.696L171.1 45.3013L172.201 45.9065L173.302 46.5051L174.396 47.1104L175.496 47.7157L176.597 48.3143L177.698 48.9195L178.792 49.5248L179.892 50.1234L180.315 50.4426C180.315 50.4426 176.02 54.726 172.046 60.752V60.7586C171.577 62.295 170.402 63.9445 169.677 65.6605C166.107 74.1275 177.704 78.6103 179.409 84.9356C179.51 85.3147 179.678 86.0464 179.745 86.7447H179.993V86.8512C179.993 89.1924 180.033 93.223 180.1 98.2845C180.181 103.659 180.208 110.197 180.134 117.121L180.396 149.612L180.523 166.053L180.537 168.521H180.517V168.501Z" fill="url(#paint0_linear_1897_157)"/>
<path d="M180.422 149.592C167.576 151.554 154.549 151.979 141.596 150.882C137.931 150.563 133.985 150.13 130.709 149.572V98.1914C132.112 98.4308 133.75 98.6437 135.307 98.8432C150.186 100.692 165.288 100.506 180.12 98.2646C180.201 103.639 180.241 110.177 180.161 117.101L180.422 149.592Z" fill="url(#paint1_linear_1897_157)"/>
<g opacity="0.9">
<path opacity="0.9" d="M165.08 115.385C157.824 116.296 151.905 119.588 148.247 125.188C147.254 126.712 146.569 128.567 146.509 130.323C146.442 132.225 147.025 134.074 147.992 135.764C148.844 137.26 149.757 138.624 151.26 139.701C151.341 139.761 151.422 139.814 151.509 139.868C151.549 139.894 151.589 139.907 151.63 139.934C151.663 136.436 152.341 130.456 156.469 128.714C154.818 131.347 153.516 136.715 153.63 140.732C157.187 141.537 161.697 139.907 164.335 138.125C166.281 136.815 167.61 134.886 168.543 132.937C170.966 127.862 167.368 122.295 169.798 117.247C170.154 116.502 170.375 115.464 171.161 114.959C169.127 115.045 167.093 115.132 165.08 115.385Z" fill="white"/>
<path opacity="0.9" d="M148.569 117.433C148.878 117.932 149.301 118.724 149.784 119.715C148.368 121.005 147.126 122.468 146.059 124.104C144.797 126.04 144.059 128.221 143.985 130.263C143.958 130.948 144.012 131.627 144.119 132.305C144.092 132.292 144.079 132.285 144.059 132.272C142.112 130.962 140.79 129.033 139.851 127.084C137.434 122.003 141.032 116.442 138.595 111.394C138.24 110.656 138.025 109.611 137.24 109.106C139.26 109.186 141.3 109.272 143.307 109.525C148.609 110.19 153.2 112.132 156.71 115.318C154.435 116.269 152.388 117.506 150.583 119.016C149.931 118.278 149.247 117.719 148.569 117.433Z" fill="white"/>
</g>
<path opacity="0.3" d="M180.517 168.501C180.557 168.501 180.584 168.747 180.584 168.893C180.584 172.199 169.389 174.853 155.59 174.853C143.623 174.853 133.622 172.904 131.173 170.124H130.723C130.723 170.124 130.723 169.545 130.723 168.454V78.1246C130.723 73.4754 144.039 58.4039 153.173 48.6666C153.341 48.4936 153.475 48.314 153.636 48.1411C155.522 49.0457 157.469 50.2096 159.529 51.6529C159.529 51.6529 161.966 62.9599 151.965 67.7222C143.71 71.653 133.186 85.1615 135.26 98.8496C135.696 101.73 136.69 104.623 138.388 107.43C143.321 115.604 151.797 123.426 151.563 133.21C151.469 137.174 149.529 140.546 147.166 143.845C145.844 145.694 143.153 148.235 141.542 150.888C140.213 153.077 139.616 155.325 141.146 157.3C143.415 160.22 149.455 160.38 152.992 161.105C162.053 162.98 171.812 163.053 180.564 166.04L180.584 168.507H180.517V168.501Z" fill="url(#paint2_linear_1897_157)"/>
<path d="M185.845 47.4227L174.899 60.6319C174.395 61.2438 173.416 61.3768 172.718 60.9445L157.167 51.2072L152.596 48.3472C151.898 47.9082 151.737 47.0569 152.247 46.4516L163.187 33.2357C164.603 31.533 167.342 31.1406 169.308 32.3711L175.328 36.1423L184.845 42.1017C186.812 43.3322 187.255 45.7133 185.845 47.4227Z" fill="url(#paint3_linear_1897_157)"/>
<path d="M156.462 47.4563C156.274 47.6757 155.925 47.7223 155.67 47.5627L155.536 47.4829C155.281 47.3232 155.227 47.0106 155.408 46.7911L165.825 34.3535C166.012 34.134 166.361 34.0874 166.617 34.2471L166.751 34.3269C167.006 34.4865 167.059 34.7991 166.878 35.0186L156.462 47.4563Z" fill="url(#paint4_linear_1897_157)"/>
<path d="M158.562 48.7864C158.375 49.0058 158.026 49.0524 157.77 48.8928L157.636 48.813C157.381 48.6533 157.327 48.3407 157.509 48.1212L167.925 35.6836C168.113 35.4641 168.462 35.4175 168.717 35.5771L168.851 35.6569C169.107 35.8166 169.16 36.1292 168.979 36.3487L158.562 48.7864Z" fill="url(#paint5_linear_1897_157)"/>
<path d="M160.663 50.117C160.475 50.3364 160.126 50.383 159.871 50.2234L159.737 50.1436C159.482 49.9839 159.428 49.6713 159.61 49.4518L170.026 37.0141C170.214 36.7946 170.563 36.7481 170.818 36.9077L170.952 36.9875C171.207 37.1471 171.261 37.4597 171.08 37.6792L160.663 50.117Z" fill="url(#paint6_linear_1897_157)"/>
<path d="M162.764 51.447C162.576 51.6665 162.227 51.7131 161.972 51.5534L161.838 51.4736C161.583 51.314 161.529 51.0014 161.71 50.7819L172.127 38.3442C172.315 38.1247 172.664 38.0782 172.919 38.2378L173.053 38.3176C173.308 38.4772 173.362 38.7898 173.181 39.0093L162.764 51.447Z" fill="url(#paint7_linear_1897_157)"/>
<path d="M164.858 52.7771C164.67 52.9966 164.321 53.0432 164.066 52.8835L163.932 52.8037C163.677 52.6441 163.623 52.3315 163.804 52.112L174.221 39.6743C174.409 39.4548 174.758 39.4082 175.013 39.5679L175.147 39.6477C175.402 39.8073 175.456 40.1199 175.275 40.3394L164.858 52.7771Z" fill="url(#paint8_linear_1897_157)"/>
<path d="M166.959 54.1008C166.771 54.3203 166.422 54.3669 166.167 54.2072L166.033 54.1274C165.778 53.9678 165.724 53.6552 165.905 53.4357L176.322 40.998C176.51 40.7785 176.859 40.732 177.114 40.8916L177.248 40.9714C177.503 41.131 177.557 41.4436 177.375 41.6631L166.959 54.1008Z" fill="url(#paint9_linear_1897_157)"/>
<path d="M169.06 55.4309C168.872 55.6504 168.523 55.6969 168.268 55.5373L168.134 55.4575C167.879 55.2979 167.825 54.9853 168.006 54.7658L178.423 42.3281C178.61 42.1086 178.959 42.062 179.214 42.2217L179.349 42.3015C179.604 42.4611 179.657 42.7737 179.476 42.9932L169.06 55.4309Z" fill="url(#paint10_linear_1897_157)"/>
<path d="M171.16 56.7615C170.972 56.981 170.623 57.0275 170.368 56.8679L170.234 56.7881C169.979 56.6285 169.925 56.3158 170.107 56.0964L180.523 43.6587C180.711 43.4392 181.06 43.3926 181.315 43.5522L181.449 43.632C181.704 43.7917 181.758 44.1043 181.577 44.3238L171.16 56.7615Z" fill="url(#paint11_linear_1897_157)"/>
<path d="M173.261 58.0915C173.073 58.311 172.724 58.3576 172.469 58.1979L172.335 58.1181C172.08 57.9585 172.026 57.6459 172.207 57.4264L182.624 44.9887C182.812 44.7692 183.161 44.7227 183.416 44.8823L183.55 44.9621C183.805 45.1218 183.859 45.4344 183.678 45.6538L173.261 58.0915Z" fill="url(#paint12_linear_1897_157)"/>
<path opacity="0.3" d="M175.328 36.1426C175.02 37.2733 174.375 38.3707 173.12 39.0758C172.597 39.3751 171.952 39.6012 171.187 39.7276C171.1 39.7475 171.013 39.7542 170.919 39.7808C170.221 39.9138 169.496 40.1333 168.758 40.4459C167.825 40.825 166.865 41.3239 165.919 41.9158C164.187 42.9933 162.489 44.3634 161.046 45.82C160.053 46.8111 159.173 47.842 158.482 48.8596C158.482 48.8596 158.475 48.8596 158.475 48.8663C157.918 49.6711 157.475 50.4559 157.173 51.2008L152.603 48.3408C151.905 47.9019 151.744 47.0505 152.254 46.4453L163.194 33.2294C164.61 31.5267 167.348 31.1342 169.315 32.3647L175.328 36.1426Z" fill="url(#paint13_linear_1897_157)"/>
<path d="M39.4509 57.9251C45.1445 57.9251 49.76 53.3512 49.76 47.7089C49.76 42.0666 45.1445 37.4927 39.4509 37.4927C33.7574 37.4927 29.1418 42.0666 29.1418 47.7089C29.1418 53.3512 33.7574 57.9251 39.4509 57.9251Z" fill="url(#paint14_linear_1897_157)"/>
<path opacity="0.5" d="M39.4509 52.897C43.3245 52.897 46.4646 49.7852 46.4646 45.9466C46.4646 42.1079 43.3245 38.9961 39.4509 38.9961C35.5774 38.9961 32.4373 42.1079 32.4373 45.9466C32.4373 49.7852 35.5774 52.897 39.4509 52.897Z" fill="white"/>
<path d="M52.4178 38.2775C54.5121 38.2775 56.2099 36.5951 56.2099 34.5196C56.2099 32.4442 54.5121 30.7617 52.4178 30.7617C50.3235 30.7617 48.6257 32.4442 48.6257 34.5196C48.6257 36.5951 50.3235 38.2775 52.4178 38.2775Z" fill="url(#paint15_linear_1897_157)"/>
<path opacity="0.5" d="M52.4177 36.4285C53.8448 36.4285 55.0017 35.2821 55.0017 33.8678C55.0017 32.4536 53.8448 31.3071 52.4177 31.3071C50.9906 31.3071 49.8337 32.4536 49.8337 33.8678C49.8337 35.2821 50.9906 36.4285 52.4177 36.4285Z" fill="white"/>
<path d="M38.659 33.2558C42.5437 33.2558 45.6929 30.135 45.6929 26.2854C45.6929 22.4357 42.5437 19.3149 38.659 19.3149C34.7744 19.3149 31.6252 22.4357 31.6252 26.2854C31.6252 30.135 34.7744 33.2558 38.659 33.2558Z" fill="url(#paint16_linear_1897_157)"/>
<path opacity="0.5" d="M38.6589 29.8303C41.3018 29.8303 43.4443 27.7071 43.4443 25.088C43.4443 22.4689 41.3018 20.3457 38.6589 20.3457C36.016 20.3457 33.8735 22.4689 33.8735 25.088C33.8735 27.7071 36.016 29.8303 38.6589 29.8303Z" fill="white"/>
<path d="M20.7322 41.4767C25.5213 41.4767 29.4037 37.6293 29.4037 32.8834C29.4037 28.1374 25.5213 24.29 20.7322 24.29C15.9431 24.29 12.0608 28.1374 12.0608 32.8834C12.0608 37.6293 15.9431 41.4767 20.7322 41.4767Z" fill="url(#paint17_linear_1897_157)"/>
<path opacity="0.5" d="M20.7323 37.2465C23.9905 37.2465 26.6318 34.629 26.6318 31.4001C26.6318 28.1712 23.9905 25.5537 20.7323 25.5537C17.4741 25.5537 14.8328 28.1712 14.8328 31.4001C14.8328 34.629 17.4741 37.2465 20.7323 37.2465Z" fill="white"/>
<path d="M45.29 13.994C48.1368 13.994 50.4446 11.7071 50.4446 8.88594C50.4446 6.06481 48.1368 3.77783 45.29 3.77783C42.4433 3.77783 40.1355 6.06481 40.1355 8.88594C40.1355 11.7071 42.4433 13.994 45.29 13.994Z" fill="url(#paint18_linear_1897_157)"/>
<path opacity="0.5" d="M45.29 11.4864C47.2286 11.4864 48.8001 9.92901 48.8001 8.00786C48.8001 6.0867 47.2286 4.5293 45.29 4.5293C43.3513 4.5293 41.7798 6.0867 41.7798 8.00786C41.7798 9.92901 43.3513 11.4864 45.29 11.4864Z" fill="white"/>
<path d="M63.0695 5.1481C61.3446 8.0214 60.9956 12.4511 60.6801 16.4883C60.311 21.1841 59.8076 27.5692 61.6064 31.7461C63.2641 35.6105 64.4857 34.9719 67.1703 35.7036C72.4457 37.1469 103.977 42.2284 110.662 36.801C117.239 31.4601 119.535 20.938 115.232 12.777C112.575 7.74205 106.279 0.705113 73.4323 1.14409C66.1837 1.24386 64.5192 2.74037 63.0695 5.1481Z" fill="url(#paint19_linear_1897_157)"/>
<path d="M65.0962 20.1199C64.9955 21.3703 64.3512 22.5143 63.3243 23.2526C62.3041 23.9909 61.0021 24.2569 59.7738 23.9643C57.9281 23.5319 56.2704 23.1395 56.2704 23.1395L56.21 11.5532L60.351 10.775C61.6799 10.5223 63.0491 10.9014 64.0492 11.7993C65.0559 12.6905 65.5794 14.0008 65.4787 15.331L65.0962 20.1199Z" fill="#26264F"/>
<path d="M96.2116 33.3892C96.2116 33.3892 92.0772 60.067 80.6003 75.2117C58.9619 103.772 64.1098 144.218 64.1366 168.441C64.1433 174.274 68.1032 178.997 73.788 180.034C84.7145 182.03 114.165 183.613 139.81 178.564C145.562 177.434 150.099 172.352 150.65 166.413C152.777 143.513 143.837 94.0212 124.26 74.0877C117.763 67.4698 115.414 62.8605 116.467 37.9785L96.2116 33.3892Z" fill="url(#paint20_linear_1897_157)"/>
<path opacity="0.3" d="M135.079 160.347C125.494 134.028 91.0302 138.943 84.5199 120.28C78.0499 101.737 108.427 86.951 109.038 54.48C109.165 47.6293 107.97 41.3041 106.098 35.6306L96.2116 33.3892C96.2116 33.3892 92.0772 60.067 80.6003 75.2117C58.9619 103.772 64.1098 144.218 64.1366 168.441C64.1433 174.274 68.1032 178.997 73.788 180.034C84.7145 182.03 114.165 183.613 139.81 178.564C142.441 178.045 144.817 176.695 146.676 174.826C144.066 174.228 141.784 173.117 139.945 171.368C136.743 168.328 136.871 165.255 135.079 160.347Z" fill="url(#paint21_linear_1897_157)"/>
<path d="M57.5188 74.7657C72.3247 57.2598 69.4924 26.3252 69.4924 26.3252L86.6608 32.0785C82.9291 63.2791 68.5796 75.0849 61.0425 78.0912C60.076 78.477 56.841 75.5705 57.5188 74.7657Z" fill="url(#paint22_linear_1897_157)"/>
<path d="M60.2976 76.5483C75.1035 59.0424 76.419 28.4204 76.419 28.4204L89.4328 33.8611C85.7012 65.0617 68.9355 75.1648 61.3983 78.1712C60.4385 78.5503 59.613 77.3531 60.2976 76.5483Z" fill="url(#paint23_linear_1897_157)"/>
<path d="M70.4925 4.5562C68.5327 7.70886 68.1568 12.4844 67.8145 16.8476C67.4185 21.9224 66.8749 28.813 68.9354 33.409C70.8549 37.6923 72.8482 35.6105 96.6343 41.1376C111.246 44.5364 122.89 47.842 132.387 41.6897C142.052 35.4309 145.314 22.3348 138.669 12.1851C134.662 6.04606 126.515 0.485683 82.8754 1.27052C74.2241 1.4235 72.1435 1.90238 70.4925 4.5562Z" fill="url(#paint24_linear_1897_157)"/>
<path opacity="0.6" d="M119.158 31.1212C102.661 25.9865 100.775 20.486 90.7145 18.6237C80.09 16.6549 76.3181 23.3793 72.7407 20.7121C71.0159 19.4285 69.5192 16.0563 69.2104 7.44971C68.3379 10.2365 68.0694 13.6552 67.8211 16.8478C67.4251 21.9227 66.8815 28.8133 68.942 33.4092C70.8615 37.6926 72.8548 35.6108 96.6409 41.1379C111.252 44.5366 122.897 47.8423 132.394 41.6899C134.803 40.1269 136.85 38.0717 138.441 35.6573C131.394 34.4136 124.964 32.9237 119.158 31.1212Z" fill="url(#paint25_linear_1897_157)"/>
<path d="M53.559 17.3597C53.5455 14.1605 54.7268 11.5599 56.21 11.5532C57.6866 11.5466 58.9014 14.1339 58.9215 17.3331C58.935 20.5323 57.7537 23.1329 56.2704 23.1396C54.7939 23.1462 53.5791 20.5589 53.559 17.3597Z" fill="url(#paint26_linear_1897_157)"/>
<path d="M104.265 97.2534C95.3993 95.0918 86.6674 103.858 84.2714 111.873C83.627 114.028 83.466 116.05 83.5197 117.779C82.5599 121.271 82.3049 124.197 82.2847 124.457C82.2512 124.869 82.5599 125.228 82.976 125.255C82.9962 125.255 83.0163 125.255 83.0364 125.255C83.4257 125.255 83.7546 124.962 83.7814 124.57C83.7948 124.437 84.9224 111.367 91.5468 107.729C98.1913 104.084 107.843 108.474 107.937 108.514C107.937 108.514 91.2783 101.876 87.6138 116.083C88.2916 115.557 89.0568 115.105 89.9226 114.773C94.8489 112.877 98.6276 116.475 104.903 115.75C107.614 115.438 111.38 114.247 115.635 110.217C114.011 103.845 109.782 98.5969 104.265 97.2534Z" fill="white"/>
<path d="M134.32 141.517C140.428 134.793 136.743 123.027 130.736 117.154C129.125 115.578 127.401 114.48 125.837 113.715C123.186 111.228 120.696 109.631 120.474 109.492C120.125 109.272 119.662 109.372 119.434 109.718C119.42 109.738 119.414 109.751 119.4 109.771C119.219 110.11 119.326 110.536 119.655 110.749C119.769 110.822 130.87 117.972 130.978 125.475C131.085 132.997 122.635 139.362 122.548 139.429C122.548 139.429 136.307 127.995 125.394 118.098C125.535 118.943 125.582 119.821 125.468 120.732C124.83 125.927 119.843 127.536 117.534 133.363C116.534 135.884 115.816 139.735 117.393 145.355C123.857 146.925 130.521 145.707 134.32 141.517Z" fill="white"/>
<path d="M81.8552 146.818C85.9896 154.886 98.3927 155.717 106.084 152.279C108.151 151.354 109.802 150.157 111.091 148.993C114.387 147.437 116.789 145.714 116.997 145.561C117.333 145.315 117.407 144.849 117.158 144.523C117.145 144.51 117.132 144.49 117.118 144.477C116.863 144.184 116.427 144.131 116.105 144.364C115.997 144.444 105.265 152.126 98.1645 149.525C91.0434 146.918 88.097 136.808 88.0635 136.708C88.0635 136.708 93.869 153.549 107.118 147.024C106.272 146.851 105.426 146.579 104.614 146.146C99.9498 143.685 100.232 138.497 95.5805 134.261C93.567 132.425 90.2045 130.376 84.3452 129.811C80.5397 135.198 79.2846 141.796 81.8552 146.818Z" fill="white"/>
<path d="M42.6321 177.453C42.6321 177.453 42.4576 178.837 42.5717 179.302C42.6925 179.768 46.753 180.1 48.1289 179.941C49.5048 179.781 47.3101 178.384 46.4309 178.118C45.5584 177.859 42.6321 177.453 42.6321 177.453Z" fill="url(#paint27_linear_1897_157)"/>
<path d="M44.6792 175.146L44.2497 177.926C44.2497 177.926 43.1557 178.411 42.6322 177.932L42.5718 175.026L44.6792 175.146Z" fill="url(#paint28_linear_1897_157)"/>
<path d="M21.7724 175.019C21.7724 175.019 22.6315 175.651 22.4033 176.409C22.1751 177.168 20.1616 180.214 18.7253 181.072C17.289 181.937 17.7387 180.134 18.1616 179.017C18.5777 177.899 19.6448 175.425 20.0609 175.013C20.4771 174.607 21.7724 175.019 21.7724 175.019Z" fill="url(#paint29_linear_1897_157)"/>
<path d="M23.3226 171.966C22.9065 173.117 22.5038 174.061 22.1883 174.76C21.497 176.303 21.1145 176.882 20.6849 177.387C20.3091 177.826 19.4231 178.757 19.1882 178.604C18.9466 178.445 19.5976 177.314 20.846 173.988C21.0272 173.503 21.5977 171.966 21.5977 171.966H23.3226Z" fill="url(#paint30_linear_1897_157)"/>
<path d="M53.1897 123.865C53.485 126.758 53.7736 131.248 53.3441 136.702C52.787 143.805 51.3575 148.295 49.5587 155.871C48.458 160.5 46.9815 167.311 45.6391 175.824C45.3304 175.997 44.4176 176.463 43.2364 176.29C42.5786 176.19 42.082 175.931 41.7934 175.744C38.2765 165.102 39.3168 158.511 41.0148 154.401C41.7397 152.651 42.6122 151.268 43.082 148.574C43.6995 145.016 42.9343 143.021 41.8404 134.773C41.0618 128.893 41.196 127.982 41.7128 127.104C43.7934 123.586 50.1292 123.652 53.1897 123.865Z" fill="url(#paint31_linear_1897_157)"/>
<path d="M41.0951 125.102C38.9407 136.116 36.8332 141.903 35.2291 145.175C34.8332 145.98 33.5177 148.587 32.276 152.319C31.1753 155.624 30.7189 158.052 30.484 159.123C29.739 162.502 27.9067 167.43 22.9737 173.895C22.9133 173.928 22.0676 174.401 21.2689 173.982C20.8595 173.769 20.6582 173.43 20.5776 173.27C21.222 167.084 21.9602 161.89 22.6046 157.886C22.7388 157.048 23.3361 153.363 24.2623 148.508C24.6248 146.605 25.1617 143.818 25.7993 140.952C26.598 137.387 27.8195 132.538 29.6988 126.725C33.4975 126.186 37.2963 125.641 41.0951 125.102Z" fill="url(#paint32_linear_1897_157)"/>
<path d="M73.593 93.6023C73.593 93.6023 74.0763 91.72 74.8817 91.2211C75.6871 90.7223 76.828 90.1902 77.0898 89.9774C77.3515 89.7579 77.6536 90.4097 76.9019 90.9085C76.1502 91.4074 76.1502 91.4074 76.1502 91.4074C76.1367 91.5471 76.1569 91.6535 76.1837 91.7266C76.3045 92.0791 76.7072 92.3252 77.2106 92.3651C79.1368 92.7642 79.8953 92.7842 80.1906 92.6977C80.2376 92.6844 80.4053 92.6312 80.4725 92.7044C80.5866 92.8241 80.3852 93.1965 80.298 93.3296C79.7745 94.121 77.9623 94.4603 76.6066 93.8484C76.1099 93.6222 75.922 93.3828 75.5595 93.4426C74.9823 93.5424 74.6333 94.2873 74.4253 94.9125L73.593 93.6023Z" fill="url(#paint33_linear_1897_157)"/>
<path d="M75.1502 94.201C74.5998 93.7155 74.0495 93.23 73.4991 92.7511C73.2978 92.9506 70.3648 95.7907 66.264 94.926C63.4384 94.3341 61.8142 92.0394 60.7671 90.5695C57.6328 86.1664 59.5054 82.934 56.1361 79.941C55.1965 79.1096 53.3642 78.1052 52.1628 78.4112C49.3037 79.1428 47.6526 87.6696 50.4245 94.3806C50.9816 95.7375 54.0622 103.193 61.0423 103.998C66.6935 104.65 72.6669 100.713 75.1502 94.201Z" fill="white"/>
<path d="M42.0684 81.2709C43.2698 80.1734 45.5584 78.9097 46.7128 75.9632C47.0618 75.0786 48.2834 71.9393 46.4779 69.5382C45.4041 68.1149 43.4107 67.1438 41.6523 67.4897C40.1488 67.7823 39.9139 68.8199 37.3635 70.9084C36.3702 71.7198 34.7728 73.0234 32.9942 73.7551C29.9471 74.9988 28.1216 73.8282 25.0611 73.9612C21.3025 74.1275 16.94 76.2027 14.8392 79.2223C11.1076 84.5832 16.5104 90.0238 12.423 96.3025C11.0807 98.3577 10.423 97.8988 7.25508 101.883C4.08047 105.874 2.48981 107.862 2.7717 110.31C3.16097 113.702 6.85238 116.941 10.3223 117.161C13.7117 117.373 15.8661 114.733 17.5977 115.89C18.826 116.715 18.1212 118.311 19.43 120.24C21.1146 122.721 24.4168 123.213 24.9537 123.293C29.9069 124.031 36.5917 118.271 39.4307 111.454C44.545 99.1426 35.5581 87.2436 42.0684 81.2709Z" fill="url(#paint34_linear_1897_157)"/>
<path opacity="0.15" d="M52.8139 86.5783C57.9751 90.6156 57.3979 98.3642 60.5725 98.7566C61.539 98.8763 61.4853 98.1381 63.8008 97.3931C67.1835 96.3023 68.7674 97.4064 71.1501 96.575C72.1367 96.2292 73.4186 95.4976 74.6804 93.7749C74.8415 93.9146 74.9959 94.0542 75.1569 94.1939C72.6736 100.705 66.6935 104.643 61.0558 103.991C54.0757 103.186 50.995 95.7303 50.4379 94.3735C49.1359 91.2275 48.8137 87.6758 49.1292 84.7227C50.3104 85.0752 51.6058 85.6339 52.8139 86.5783Z" fill="url(#paint35_linear_1897_157)"/>
<path d="M56.5521 80.4528C56.2367 79.9673 55.2299 78.6171 50.9613 77.6194C48.8203 77.1206 44.8672 76.2692 39.7797 77.3334C32.7929 78.8033 28.4371 82.9537 26.7994 84.7029C28.1417 85.5676 31.8399 88.2081 33.6789 93.2231C34.2493 94.7794 35.934 100.114 33.5245 105.102C32.1352 107.975 29.6787 110.137 27.8129 111.78C25.0141 114.241 23.5644 114.62 22.6248 116.821C21.6046 119.222 22.6315 120.393 21.363 122.036C20.0005 123.798 18.4032 122.98 16.0943 124.763C13.7318 126.592 14.5708 128.095 12.4164 130.117C9.28874 133.05 5.14094 132.099 4.9463 133.416C4.77851 134.553 7.72493 136.096 10.2351 136.715C15.195 137.952 19.5173 135.877 20.8059 135.232C24.3698 133.456 23.7523 132.312 26.4706 130.962C31.0143 128.7 34.1218 131.214 44.4779 131.474C50.0888 131.614 52.9211 131.647 54.4715 129.765C55.8877 128.049 55.1427 126.166 54.2903 118.045C54.0151 115.332 53.4447 109.658 53.4379 106.419C53.4379 104.51 54.1024 101.384 55.4447 95.1386C55.5253 94.7728 56.2501 91.394 56.834 86.8845C57.371 82.8406 57.2971 81.5968 56.5521 80.4528Z" fill="white"/>
<g opacity="0.15">
<path opacity="0.15" d="M12.4231 130.124C14.5775 128.102 13.7318 126.598 16.1011 124.769C18.4099 122.987 20.0072 123.805 21.3697 122.042C22.6382 120.4 21.6113 119.229 22.6315 116.828C23.5711 114.626 25.0208 114.247 27.8196 111.786C29.6854 110.143 32.1419 107.989 33.5312 105.109C35.9407 100.114 34.2561 94.7859 33.6856 93.2296C31.8533 88.2212 28.1485 85.5807 26.8061 84.7094C26.9336 84.5697 27.088 84.4168 27.2491 84.2505C36.0883 85.4544 41.2429 90.5159 41.8805 92.0124C43.357 95.4777 41.0214 96.748 40.961 106.738C40.9341 111.514 41.4509 113.396 39.8871 115.391C38.1018 117.673 36.0413 116.968 33.4507 119.947C31.464 122.235 31.7795 123.692 29.927 124.656C27.9337 125.694 26.6585 124.483 24.4101 124.962C20.6516 125.754 19.8462 130.05 17.3628 132.398C15.4836 134.174 12.007 135.418 5.15436 134.081C4.99328 133.855 4.91945 133.629 4.95301 133.423C5.14765 132.106 9.29545 133.057 12.4231 130.124Z" fill="url(#paint36_linear_1897_157)"/>
</g>
<path d="M42.6522 71.9258C42.6522 71.9258 42.2092 75.4576 40.8938 76.269C39.5783 77.0804 37.4507 78.1313 37.2158 78.424C36.9809 78.71 45.3637 79.6012 49.5182 77.5261C48.1491 77.2401 47.7799 77.1403 47.7799 77.1403C47.4108 77.0339 46.7128 76.841 46.0215 76.4486C45.5516 76.1825 44.7865 75.6571 44.0885 74.6727L44.1019 72.7173L42.6522 71.9258Z" fill="url(#paint37_linear_1897_157)"/>
<path d="M42.451 73.1763C42.451 73.1763 43.3101 74.3403 44.6524 73.8547C45.8538 73.4224 45.1356 70.3362 44.1826 69.9837C43.8671 69.864 43.2765 69.9172 42.8872 70.1633C42.6121 70.3362 41.8805 71.2342 42.2966 72.2518C41.9946 72.1653 41.7261 72.2451 41.659 72.3915C41.5718 72.5777 41.8335 72.8371 41.8872 72.8969C42.0953 73.1031 42.3436 73.1563 42.451 73.1763Z" fill="url(#paint38_linear_1897_157)"/>
<path d="M53.4378 78.3577L51.478 77.7524C51.478 77.7524 52.2633 80.6723 52.7465 83.253C52.9345 84.2839 52.2163 85.2616 51.1626 85.3946L44.2899 86.2327C43.3033 86.3524 42.3301 85.9533 41.7126 85.1818L36.2963 78.3577L34.605 79.0694C34.605 79.0694 42.0415 87.9553 41.8871 92.0192C41.7998 94.1941 41.7394 96.4755 41.7059 98.125C41.679 99.4286 40.5716 100.46 39.2561 100.406L34.7727 100.233L34.5378 102.162L37.5514 102.548C38.142 102.668 39.1555 102.96 39.8669 103.812C40.5381 104.61 40.679 105.574 40.6991 106.299C40.8535 110.988 36.7661 123.273 39.5582 127.703C42.2831 132.026 53.6325 132.132 56.7131 127.703C59.0689 124.317 54.9949 120.566 54.4513 107.603C54.2969 103.918 54.4446 99.9806 54.4849 98.9164C54.7332 92.3783 55.3507 89.4917 54.76 84.6497C54.4245 81.9028 53.8473 79.7145 53.4378 78.3577Z" fill="url(#paint39_linear_1897_157)"/>
<path d="M33.7393 101.863C33.7393 101.863 37.5582 100.493 38.122 100.493C38.6858 100.493 40.706 101.717 40.8536 101.863C41.0013 102.009 39.2428 101.976 38.6052 102.082C37.9676 102.189 35.0547 104.164 33.7393 101.863Z" fill="url(#paint40_linear_1897_157)"/>
<path d="M31.4908 80.792C31.4908 80.792 20.524 87.9753 19.4703 94.9191C18.4233 101.863 33.7392 102.98 33.7392 102.98L34.7057 100.912C34.7057 100.912 28.4639 97.0408 28.3095 96.3025C28.1551 95.5642 38.6589 87.9886 38.6589 87.9886L31.4908 80.792Z" fill="white"/>
<path d="M172.65 27.8816C177.992 27.8816 182.322 23.5905 182.322 18.2972C182.322 13.0039 177.992 8.71289 172.65 8.71289C167.309 8.71289 162.979 13.0039 162.979 18.2972C162.979 23.5905 167.309 27.8816 172.65 27.8816Z" fill="url(#paint41_linear_1897_157)"/>
<path opacity="0.5" d="M172.651 23.1658C176.287 23.1658 179.235 20.2446 179.235 16.641C179.235 13.0375 176.287 10.1162 172.651 10.1162C169.014 10.1162 166.066 13.0375 166.066 16.641C166.066 20.2446 169.014 23.1658 172.651 23.1658Z" fill="white"/>
<path d="M151.952 13.9408C155.836 13.9408 158.985 10.8201 158.985 6.97042C158.985 3.12077 155.836 0 151.952 0C148.067 0 144.918 3.12077 144.918 6.97042C144.918 10.8201 148.067 13.9408 151.952 13.9408Z" fill="url(#paint42_linear_1897_157)"/>
<path opacity="0.5" d="M151.951 10.509C154.594 10.509 156.737 8.38579 156.737 5.7667C156.737 3.14761 154.594 1.02441 151.951 1.02441C149.309 1.02441 147.166 3.14761 147.166 5.7667C147.166 8.38579 149.309 10.509 151.951 10.509Z" fill="white"/>
</g>
<defs>
<linearGradient id="paint0_linear_1897_157" x1="130.714" y1="107.423" x2="180.581" y2="107.423" gradientUnits="userSpaceOnUse">
<stop stop-color="#AA80F9"/>
<stop offset="0.9964" stop-color="#6165D7"/>
</linearGradient>
<linearGradient id="paint1_linear_1897_157" x1="126.922" y1="103.354" x2="183.729" y2="145.096" gradientUnits="userSpaceOnUse">
<stop stop-color="#AA80F9"/>
<stop offset="0.9964" stop-color="#6165D7"/>
</linearGradient>
<linearGradient id="paint2_linear_1897_157" x1="118.818" y1="91.9065" x2="195.911" y2="148.556" gradientUnits="userSpaceOnUse">
<stop stop-color="#AA80F9"/>
<stop offset="0.9964" stop-color="#6165D7"/>
</linearGradient>
<linearGradient id="paint3_linear_1897_157" x1="151.95" y1="46.4255" x2="186.67" y2="46.4255" gradientUnits="userSpaceOnUse">
<stop stop-color="#444B8C"/>
<stop offset="0.9964" stop-color="#26264F"/>
</linearGradient>
<linearGradient id="paint4_linear_1897_157" x1="160.226" y1="40.2419" x2="162.055" y2="41.5857" gradientUnits="userSpaceOnUse">
<stop stop-color="#AA80F9"/>
<stop offset="0.9964" stop-color="#6165D7"/>
</linearGradient>
<linearGradient id="paint5_linear_1897_157" x1="162.325" y1="41.5711" x2="164.154" y2="42.9149" gradientUnits="userSpaceOnUse">
<stop stop-color="#AA80F9"/>
<stop offset="0.9964" stop-color="#6165D7"/>
</linearGradient>
<linearGradient id="paint6_linear_1897_157" x1="164.425" y1="42.9009" x2="166.253" y2="44.2446" gradientUnits="userSpaceOnUse">
<stop stop-color="#AA80F9"/>
<stop offset="0.9964" stop-color="#6165D7"/>
</linearGradient>
<linearGradient id="paint7_linear_1897_157" x1="166.524" y1="44.2301" x2="168.353" y2="45.5739" gradientUnits="userSpaceOnUse">
<stop stop-color="#AA80F9"/>
<stop offset="0.9964" stop-color="#6165D7"/>
</linearGradient>
<linearGradient id="paint8_linear_1897_157" x1="168.624" y1="45.5593" x2="170.452" y2="46.9031" gradientUnits="userSpaceOnUse">
<stop stop-color="#AA80F9"/>
<stop offset="0.9964" stop-color="#6165D7"/>
</linearGradient>
<linearGradient id="paint9_linear_1897_157" x1="170.723" y1="46.8888" x2="172.552" y2="48.2326" gradientUnits="userSpaceOnUse">
<stop stop-color="#AA80F9"/>
<stop offset="0.9964" stop-color="#6165D7"/>
</linearGradient>
<linearGradient id="paint10_linear_1897_157" x1="172.823" y1="48.2181" x2="174.651" y2="49.5618" gradientUnits="userSpaceOnUse">
<stop stop-color="#AA80F9"/>
<stop offset="0.9964" stop-color="#6165D7"/>
</linearGradient>
<linearGradient id="paint11_linear_1897_157" x1="174.922" y1="49.5478" x2="176.75" y2="50.8916" gradientUnits="userSpaceOnUse">
<stop stop-color="#AA80F9"/>
<stop offset="0.9964" stop-color="#6165D7"/>
</linearGradient>
<linearGradient id="paint12_linear_1897_157" x1="177.021" y1="50.877" x2="178.85" y2="52.2208" gradientUnits="userSpaceOnUse">
<stop stop-color="#AA80F9"/>
<stop offset="0.9964" stop-color="#6165D7"/>
</linearGradient>
<linearGradient id="paint13_linear_1897_157" x1="158.324" y1="38.1755" x2="168.684" y2="45.7885" gradientUnits="userSpaceOnUse">
<stop stop-color="#444B8C"/>
<stop offset="0.9964" stop-color="#26264F"/>
</linearGradient>
<linearGradient id="paint14_linear_1897_157" x1="40.713" y1="30.5114" x2="36.8413" y2="84.3057" gradientUnits="userSpaceOnUse">
<stop offset="0.00359712" stop-color="#E38DDD"/>
<stop offset="1" stop-color="#9571F6"/>
</linearGradient>
<linearGradient id="paint15_linear_1897_157" x1="52.8811" y1="28.1908" x2="51.4565" y2="47.9848" gradientUnits="userSpaceOnUse">
<stop offset="0.00359712" stop-color="#E38DDD"/>
<stop offset="1" stop-color="#9571F6"/>
</linearGradient>
<linearGradient id="paint16_linear_1897_157" x1="39.5172" y1="14.5606" x2="36.8767" y2="51.2484" gradientUnits="userSpaceOnUse">
<stop offset="0.00359712" stop-color="#E38DDD"/>
<stop offset="1" stop-color="#9571F6"/>
</linearGradient>
<linearGradient id="paint17_linear_1897_157" x1="21.7953" y1="18.4193" x2="18.5392" y2="63.6603" gradientUnits="userSpaceOnUse">
<stop offset="0.00359712" stop-color="#E38DDD"/>
<stop offset="1" stop-color="#9571F6"/>
</linearGradient>
<linearGradient id="paint18_linear_1897_157" x1="45.9186" y1="0.289363" x2="43.9827" y2="27.1865" gradientUnits="userSpaceOnUse">
<stop offset="0.00359712" stop-color="#E38DDD"/>
<stop offset="1" stop-color="#9571F6"/>
</linearGradient>
<linearGradient id="paint19_linear_1897_157" x1="32.9351" y1="41.273" x2="99.63" y2="14.8306" gradientUnits="userSpaceOnUse">
<stop stop-color="#311944"/>
<stop offset="1" stop-color="#893976"/>
</linearGradient>
<linearGradient id="paint20_linear_1897_157" x1="138.941" y1="73.8245" x2="63.0656" y2="209.69" gradientUnits="userSpaceOnUse">
<stop stop-color="#FF9085"/>
<stop offset="1" stop-color="#FB6FBB"/>
</linearGradient>
<linearGradient id="paint21_linear_1897_157" x1="63.5811" y1="107.664" x2="146.67" y2="107.664" gradientUnits="userSpaceOnUse">
<stop stop-color="#FF9085"/>
<stop offset="1" stop-color="#FB6FBB"/>
</linearGradient>
<linearGradient id="paint22_linear_1897_157" x1="67.18" y1="50.2002" x2="110.107" y2="84.4274" gradientUnits="userSpaceOnUse">
<stop stop-color="#311944"/>
<stop offset="1" stop-color="#893976"/>
</linearGradient>
<linearGradient id="paint23_linear_1897_157" x1="57.789" y1="44.3643" x2="75.1714" y2="55.4671" gradientUnits="userSpaceOnUse">
<stop stop-color="#311944"/>
<stop offset="1" stop-color="#893976"/>
</linearGradient>
<linearGradient id="paint24_linear_1897_157" x1="166.371" y1="-18.6639" x2="100.998" y2="21.4838" gradientUnits="userSpaceOnUse">
<stop stop-color="#311944"/>
<stop offset="1" stop-color="#893976"/>
</linearGradient>
<linearGradient id="paint25_linear_1897_157" x1="67.2403" y1="24.2859" x2="138.888" y2="29.8038" gradientUnits="userSpaceOnUse">
<stop stop-color="#311944"/>
<stop offset="1" stop-color="#893976"/>
</linearGradient>
<linearGradient id="paint26_linear_1897_157" x1="73.4915" y1="27.132" x2="40.4619" y2="8.05436" gradientUnits="userSpaceOnUse">
<stop stop-color="#444B8C"/>
<stop offset="0.9964" stop-color="#26264F"/>
</linearGradient>
<linearGradient id="paint27_linear_1897_157" x1="46.1527" y1="168.546" x2="44.7733" y2="193.6" gradientUnits="userSpaceOnUse">
<stop stop-color="#444B8C"/>
<stop offset="0.9964" stop-color="#26264F"/>
</linearGradient>
<linearGradient id="paint28_linear_1897_157" x1="42.5768" y1="176.58" x2="44.68" y2="176.58" gradientUnits="userSpaceOnUse">
<stop stop-color="#FFC444"/>
<stop offset="0.9964" stop-color="#F36F56"/>
</linearGradient>
<linearGradient id="paint29_linear_1897_157" x1="20.7322" y1="167.147" x2="19.3528" y2="192.201" gradientUnits="userSpaceOnUse">
<stop stop-color="#444B8C"/>
<stop offset="0.9964" stop-color="#26264F"/>
</linearGradient>
<linearGradient id="paint30_linear_1897_157" x1="19.1422" y1="175.295" x2="23.3249" y2="175.295" gradientUnits="userSpaceOnUse">
<stop stop-color="#FFC444"/>
<stop offset="0.9964" stop-color="#F36F56"/>
</linearGradient>
<linearGradient id="paint31_linear_1897_157" x1="46.3934" y1="149.795" x2="30.3261" y2="147.261" gradientUnits="userSpaceOnUse">
<stop stop-color="#444B8C"/>
<stop offset="0.9964" stop-color="#26264F"/>
</linearGradient>
<linearGradient id="paint32_linear_1897_157" x1="45.0778" y1="133.051" x2="-0.747774" y2="176.026" gradientUnits="userSpaceOnUse">
<stop stop-color="#444B8C"/>
<stop offset="0.9964" stop-color="#26264F"/>
</linearGradient>
<linearGradient id="paint33_linear_1897_157" x1="77.5606" y1="91.8439" x2="66.7814" y2="120.978" gradientUnits="userSpaceOnUse">
<stop stop-color="#FFC444"/>
<stop offset="0.9964" stop-color="#F36F56"/>
</linearGradient>
<linearGradient id="paint34_linear_1897_157" x1="20.16" y1="105.605" x2="29.6956" y2="91.9734" gradientUnits="userSpaceOnUse">
<stop stop-color="#444B8C"/>
<stop offset="0.9964" stop-color="#26264F"/>
</linearGradient>
<linearGradient id="paint35_linear_1897_157" x1="75.152" y1="94.4001" x2="49.0075" y2="94.4001" gradientUnits="userSpaceOnUse">
<stop stop-color="#AA80F9"/>
<stop offset="0.9964" stop-color="#6165D7"/>
</linearGradient>
<linearGradient id="paint36_linear_1897_157" x1="30.5762" y1="76.9018" x2="22.7488" y2="125.204" gradientUnits="userSpaceOnUse">
<stop stop-color="#AA80F9"/>
<stop offset="0.9964" stop-color="#6165D7"/>
</linearGradient>
<linearGradient id="paint37_linear_1897_157" x1="43.8179" y1="78.6309" x2="35.4071" y2="66.3106" gradientUnits="userSpaceOnUse">
<stop stop-color="#FFC444"/>
<stop offset="0.9964" stop-color="#F36F56"/>
</linearGradient>
<linearGradient id="paint38_linear_1897_157" x1="44.5898" y1="72.4179" x2="31.1956" y2="64.2807" gradientUnits="userSpaceOnUse">
<stop stop-color="#FFC444"/>
<stop offset="0.9964" stop-color="#F36F56"/>
</linearGradient>
<linearGradient id="paint39_linear_1897_157" x1="57.4305" y1="104.366" x2="34.5285" y2="104.366" gradientUnits="userSpaceOnUse">
<stop stop-color="#AA80F9"/>
<stop offset="0.9964" stop-color="#6165D7"/>
</linearGradient>
<linearGradient id="paint40_linear_1897_157" x1="38.4812" y1="99.8747" x2="34.0466" y2="107.556" gradientUnits="userSpaceOnUse">
<stop stop-color="#FFC444"/>
<stop offset="0.9964" stop-color="#F36F56"/>
</linearGradient>
<linearGradient id="paint41_linear_1897_157" x1="173.832" y1="2.15907" x2="170.199" y2="52.6359" gradientUnits="userSpaceOnUse">
<stop offset="0.00359712" stop-color="#E38DDD"/>
<stop offset="1" stop-color="#9571F6"/>
</linearGradient>
<linearGradient id="paint42_linear_1897_157" x1="152.81" y1="-4.7594" x2="150.169" y2="31.9284" gradientUnits="userSpaceOnUse">
<stop offset="0.00359712" stop-color="#E38DDD"/>
<stop offset="1" stop-color="#9571F6"/>
</linearGradient>
<clipPath id="clip0_1897_157">
<rect width="191" height="186" fill="white"/>
</clipPath>
</defs>
</svg>
