<svg width="191" height="189" viewBox="0 0 191 189" fill="none" xmlns="http://www.w3.org/2000/svg">
<g clip-path="url(#clip0_1897_0)">
<path opacity="0.3" d="M23.9751 160.752C27.8114 164.774 31.4372 167.374 34.3026 169.426C67.9941 193.53 107.864 186.508 116.331 184.789C128.845 182.256 153.031 177.354 170.515 156.852C196.975 125.828 192.854 76.9568 172.335 44.694C168.58 38.7899 148.753 6.03953 108.462 0.785391C84.0726 -2.39011 55.65 4.01506 35.063 21.2197C-8.15471 57.3148 -5.07886 130.25 23.9751 160.752Z" fill="url(#paint0_linear_1897_0)"/>
<path d="M0.0679016 4.67881C-0.339493 3.521 1.24935 2.54601 2.3629 3.26371C13.7156 10.5626 41.5271 33.0823 40.1148 77.8847C38.3427 134.096 53.9459 152.837 71.9663 163.346C71.9663 163.346 48.4392 160.041 31.7904 141.117C-9.07812 94.6424 7.36027 25.2756 0.0679016 4.67881Z" fill="url(#paint1_linear_1897_0)"/>
<path d="M9.89988 21.1048C11.8757 27.1241 13.7158 33.1839 15.2978 39.2912C16.9138 45.3917 18.3126 51.5396 19.4872 57.7213C20.6347 63.9098 21.6464 70.1186 22.3458 76.3613C23.0791 82.604 23.5068 88.8737 23.9006 95.1706C24.342 101.461 24.7426 107.798 25.8969 114.102C27.0444 120.392 29.0813 126.641 32.3948 132.349C33.2232 133.771 34.0855 135.186 35.0361 136.54C35.9595 137.908 36.9508 139.242 37.9693 140.555C40.0266 143.175 42.2945 145.681 44.7728 148.023C49.743 152.695 55.5551 156.69 61.8358 159.92C62.4944 160.258 63.3703 160.062 63.7845 159.48C64.1919 158.911 64.0086 158.18 63.3771 157.828H63.3703C61.8697 157.001 60.3828 156.169 58.9501 155.275C58.2236 154.835 57.5242 154.374 56.8113 153.921C56.1187 153.447 55.4058 152.993 54.7336 152.499C52.004 150.562 49.4442 148.464 47.0813 146.202C42.3352 141.706 38.3699 136.554 35.1922 131.103C33.6374 128.361 32.3269 125.524 31.2745 122.599C30.2288 119.674 29.4412 116.668 28.8505 113.614C27.6758 107.5 27.2141 101.23 26.7252 94.9471C26.2228 88.6638 25.6728 82.3467 24.8173 76.0769C24.4031 72.942 23.9142 69.8072 23.371 66.6926C23.1062 65.1285 22.8075 63.578 22.5155 62.0208C22.2032 60.4702 21.8773 58.9197 21.5445 57.3692C20.1798 51.1807 18.5977 45.0396 16.7916 38.9526C14.9516 32.8725 12.9214 26.8465 10.6264 20.9017C10.5585 20.7324 10.348 20.6444 10.1511 20.7054C9.9474 20.7595 9.84556 20.9423 9.89988 21.1048Z" fill="white"/>
<path d="M50.6865 128.889C49.8106 130.541 47.5292 130.771 46.3274 129.335C39.6868 121.427 22.9361 97.3637 29.726 62.3993C35.4635 32.8718 35.7555 16.3172 35.3684 8.79487C35.2869 7.20373 37.29 6.43186 38.3017 7.66414C49.4847 21.2531 82.3072 68.9196 50.6865 128.889Z" fill="url(#paint2_linear_1897_0)"/>
<path d="M48.1676 128.556C48.1269 128.577 48.0793 128.59 48.0318 128.604C47.638 128.705 47.2374 128.475 47.1355 128.082C47.0201 127.642 35.5858 83.3951 41.6968 41.9849C41.7579 41.5854 42.1245 41.3078 42.5252 41.3687C42.9258 41.4297 43.2041 41.7953 43.143 42.1948C37.0728 83.3071 48.4324 127.27 48.5478 127.71C48.6497 128.062 48.4799 128.414 48.1676 128.556Z" fill="white"/>
<path d="M167.921 37.0567L158.463 176.461C158.273 179.298 155.903 181.505 153.051 181.505H51.9835C49.1657 181.505 46.8232 179.358 46.5788 176.555L34.5946 37.0499C34.3366 34.0301 36.618 31.3827 39.6531 31.1932C77.208 28.7828 118.701 29.1348 162.768 31.2947C165.803 31.4369 168.125 34.0369 167.921 37.0567Z" fill="url(#paint3_linear_1897_0)"/>
<path d="M150.254 59.7183H53.7491C48.7246 59.7183 44.7661 63.9974 45.1734 68.9942L52.201 155.444C52.5609 159.885 56.2681 163.311 60.7359 163.332L142.792 163.697C147.273 163.718 151.021 160.298 151.401 155.843L158.83 69.0281C159.257 64.0177 155.299 59.7183 150.254 59.7183Z" fill="url(#paint4_linear_1897_0)"/>
<path d="M43.0955 55.216H162.014C162.469 55.216 162.876 54.9317 163.032 54.5051C163.29 53.8009 162.768 53.0562 162.014 53.0562H43.0955C42.2196 53.0562 41.7103 54.0379 42.206 54.7489C42.4097 55.04 42.7424 55.216 43.0955 55.216Z" fill="url(#paint5_linear_1897_0)"/>
<path d="M161.023 37.1176L160.154 48.9733C160.113 49.5488 159.631 49.9956 159.054 49.9956H133.483C132.885 49.9956 132.396 49.5217 132.383 48.9326L131.989 36.4541C131.969 35.8244 132.485 35.303 133.116 35.3233L159.95 35.9395C160.581 35.953 161.07 36.4879 161.023 37.1176Z" fill="url(#paint6_linear_1897_0)"/>
<path d="M81.2549 41.1596L80.7932 48.973C80.7524 49.5485 80.2703 49.9954 79.6932 49.9954H47.0065C46.409 49.9954 45.9201 49.5215 45.9066 48.9324L45.1054 40.496C45.085 39.8664 45.601 39.345 46.2325 39.3653L80.1821 39.9815C80.8135 39.995 81.3024 40.5299 81.2549 41.1596Z" fill="url(#paint7_linear_1897_0)"/>
<path d="M116.915 49.9953C112.914 49.9953 109.671 46.7608 109.671 42.7708C109.671 38.7809 112.914 35.5464 116.915 35.5464C120.917 35.5464 124.16 38.7809 124.16 42.7708C124.16 46.7608 120.917 49.9953 116.915 49.9953Z" fill="url(#paint8_linear_1897_0)"/>
<path opacity="0.64" d="M116.168 47.1586C113.326 47.1586 111.022 44.8608 111.022 42.0263C111.022 39.1918 113.326 36.894 116.168 36.894C119.011 36.894 121.315 39.1918 121.315 42.0263C121.315 44.8608 119.011 47.1586 116.168 47.1586Z" fill="white"/>
<path d="M96.1995 49.9953C92.1983 49.9953 88.9547 46.7608 88.9547 42.7708C88.9547 38.7809 92.1983 35.5464 96.1995 35.5464C100.201 35.5464 103.444 38.7809 103.444 42.7708C103.444 46.7608 100.201 49.9953 96.1995 49.9953Z" fill="url(#paint9_linear_1897_0)"/>
<path opacity="0.64" d="M95.4523 47.1586C92.6098 47.1586 90.3055 44.8608 90.3055 42.0263C90.3055 39.1918 92.6098 36.894 95.4523 36.894C98.2948 36.894 100.599 39.1918 100.599 42.0263C100.599 44.8608 98.2948 47.1586 95.4523 47.1586Z" fill="white"/>
<path d="M73.8063 38.0115H80.9765C81.1327 38.0115 81.2617 37.8829 81.2617 37.7271V35.0256C81.2617 34.8699 81.1327 34.7412 80.9765 34.7412H73.8063C73.6501 34.7412 73.5211 34.8699 73.5211 35.0256V37.7271C73.5211 37.8829 73.6501 38.0115 73.8063 38.0115Z" fill="url(#paint10_linear_1897_0)"/>
<path d="M64.4295 38.0115H71.5996C71.7558 38.0115 71.8848 37.8829 71.8848 37.7271V35.0256C71.8848 34.8699 71.7558 34.7412 71.5996 34.7412H64.4295C64.2733 34.7412 64.1443 34.8699 64.1443 35.0256V37.7271C64.1443 37.8829 64.2733 38.0115 64.4295 38.0115Z" fill="url(#paint11_linear_1897_0)"/>
<path d="M54.7604 38.0115H61.9306C62.0868 38.0115 62.2158 37.8829 62.2158 37.7271V35.0256C62.2158 34.8699 62.0868 34.7412 61.9306 34.7412H54.7604C54.6042 34.7412 54.4752 34.8699 54.4752 35.0256V37.7271C54.482 37.8829 54.6042 38.0115 54.7604 38.0115Z" fill="url(#paint12_linear_1897_0)"/>
<path d="M45.3837 38.0115H52.5539C52.7101 38.0115 52.8391 37.8829 52.8391 37.7271V35.0256C52.8391 34.8699 52.7101 34.7412 52.5539 34.7412H45.3837C45.2275 34.7412 45.0985 34.8699 45.0985 35.0256V37.7271C45.1053 37.8829 45.2275 38.0115 45.3837 38.0115Z" fill="url(#paint13_linear_1897_0)"/>
<path d="M51.5966 167.923H153.323C153.696 167.923 153.995 167.625 153.995 167.252C153.995 166.88 153.696 166.582 152.284 166.582H50.5577C51.2231 166.582 50.9244 166.88 50.9244 167.252C50.9244 167.625 51.2299 167.923 51.5966 167.923Z" fill="url(#paint14_linear_1897_0)"/>
<path d="M102.467 149.716C80.7692 149.716 63.1801 132.176 63.1801 110.54C63.1801 88.9039 80.7692 71.3643 102.467 71.3643C124.164 71.3643 141.753 88.9039 141.753 110.54C141.753 132.176 124.164 149.716 102.467 149.716Z" fill="url(#paint15_linear_1897_0)"/>
<path d="M102.073 142.004C84.433 142.004 70.1331 127.744 70.1331 110.154C70.1331 92.5639 84.433 78.3042 102.073 78.3042C119.713 78.3042 134.012 92.5639 134.012 110.154C134.012 127.744 119.713 142.004 102.073 142.004Z" fill="url(#paint16_linear_1897_0)"/>
<path d="M102.073 140.162C85.4529 140.162 71.9798 126.727 71.9798 110.154C71.9798 93.5806 85.4529 80.1455 102.073 80.1455C118.693 80.1455 132.166 93.5806 132.166 110.154C132.166 126.727 118.693 140.162 102.073 140.162Z" fill="url(#paint17_linear_1897_0)"/>
<path d="M90.4144 85.1699C92.8113 83.8157 95.8735 84.1137 97.8019 86.0704C100.871 89.185 104.178 94.6896 100.599 102.32C95.2149 113.81 96.2741 132.207 107.43 137.082C107.43 137.082 80.3858 140.169 75.1711 114.183C71.7694 97.249 84.4393 88.5418 90.4144 85.1699Z" fill="url(#paint18_linear_1897_0)"/>
<path opacity="0.53" d="M107.002 87.2825C107.423 87.2893 107.844 87.3299 108.258 87.4179C108.672 87.5127 109.073 87.6278 109.467 87.7903C110.248 88.1086 110.988 88.5351 111.68 89.0226C112.373 89.5169 113.025 90.0585 113.649 90.6408C113.962 90.932 114.281 91.2164 114.58 91.521C114.878 91.8257 115.191 92.1169 115.476 92.4351C117.818 94.9132 119.781 97.7434 121.193 100.824C122.592 103.905 123.454 107.243 123.515 110.601C123.576 113.959 122.918 117.345 121.505 120.392C120.106 123.432 117.927 126.133 115.129 127.982C112.352 129.857 109.053 130.947 105.705 131.191C104.028 131.306 102.337 131.205 100.687 130.9C99.0374 130.575 97.4146 130.074 95.8801 129.383C94.3456 128.686 92.879 127.833 91.5346 126.81C90.1902 125.795 88.9408 124.644 87.8612 123.351C86.7681 122.071 85.8514 120.649 85.1113 119.139C84.3984 117.622 83.862 116.018 83.6447 114.366C83.4071 112.714 83.4885 111.034 83.8688 109.423C84.086 108.624 84.3373 107.825 84.6971 107.074C84.8533 106.688 85.0706 106.329 85.2675 105.963C85.3693 105.78 85.4848 105.611 85.5934 105.428C85.702 105.252 85.8107 105.076 85.9397 104.907C87.8409 102.158 90.7402 100.1 93.9925 99.2871C97.2517 98.4814 100.782 98.8064 103.879 100.133C104.076 100.208 104.266 100.303 104.456 100.398C104.646 100.492 104.836 100.574 105.026 100.675C105.393 100.885 105.766 101.075 106.119 101.312C106.839 101.752 107.504 102.273 108.129 102.828C109.378 103.952 110.424 105.306 111.11 106.83C111.809 108.346 112.074 110.046 111.836 111.698C111.612 113.343 110.879 114.934 109.677 116.079C108.475 117.216 106.798 117.805 105.121 117.798C103.451 117.792 101.767 117.237 100.477 116.16C99.8386 115.625 99.2886 114.968 98.9763 114.203C98.6572 113.445 98.6164 112.578 98.8813 111.8C99.0103 111.414 99.2207 111.055 99.5059 110.764C99.7911 110.472 100.151 110.269 100.552 110.175C100.945 110.073 101.373 110.08 101.76 110.188C101.957 110.242 102.14 110.33 102.31 110.439C102.48 110.547 102.622 110.696 102.751 110.852L102.758 110.858C102.799 110.906 102.867 110.919 102.921 110.879C102.969 110.838 102.976 110.77 102.942 110.716C102.806 110.533 102.643 110.371 102.453 110.242C102.263 110.12 102.059 110.012 101.835 109.951C101.4 109.822 100.932 109.809 100.49 109.917C100.049 110.012 99.6281 110.249 99.3022 110.567C98.9763 110.886 98.7387 111.285 98.5893 111.712C98.2905 112.558 98.3177 113.519 98.6504 114.352C98.9831 115.192 99.5602 115.903 100.232 116.478C101.584 117.629 103.356 118.239 105.128 118.266C106.9 118.293 108.713 117.69 110.037 116.465C111.354 115.239 112.156 113.54 112.414 111.793C112.543 110.913 112.556 110.019 112.434 109.139C112.312 108.252 112.06 107.399 111.701 106.586C110.988 104.961 109.894 103.526 108.591 102.341C107.939 101.745 107.246 101.203 106.5 100.736C106.133 100.486 105.746 100.282 105.366 100.066C105.175 99.9575 104.972 99.8694 104.775 99.7679C104.578 99.6731 104.381 99.5715 104.177 99.4903C100.952 98.0752 97.2585 97.7095 93.8092 98.5288C90.3599 99.3684 87.2637 101.522 85.2267 104.426C85.091 104.602 84.9755 104.792 84.8533 104.975C84.7379 105.164 84.6157 105.347 84.5002 105.537C84.2897 105.929 84.0589 106.308 83.8891 106.715C83.4953 107.514 83.2237 108.36 82.9861 109.22C82.5583 110.946 82.4565 112.761 82.7145 114.515C82.9386 116.275 83.5089 117.975 84.2558 119.572C85.0299 121.157 85.9872 122.653 87.1279 123.994C88.255 125.348 89.5519 126.546 90.9506 127.609C92.3494 128.679 93.8771 129.573 95.4795 130.304C97.0819 131.035 98.7794 131.564 100.511 131.909C102.249 132.234 104.028 132.349 105.793 132.227C109.317 131.977 112.794 130.846 115.734 128.869C118.701 126.912 121.023 124.055 122.49 120.852C123.956 117.643 124.649 114.102 124.547 110.594C124.445 107.074 123.522 103.614 122.008 100.472C120.5 97.3168 118.409 94.4663 115.951 92.0153C115.652 91.7039 115.326 91.4127 115.007 91.1148C114.695 90.8169 114.355 90.5393 114.03 90.2549C113.378 89.6862 112.685 89.1513 111.952 88.6705C111.225 88.1898 110.444 87.77 109.616 87.4721C109.202 87.3231 108.774 87.2216 108.34 87.1403C107.905 87.0659 107.464 87.0455 107.022 87.0591C106.961 87.0591 106.907 87.1133 106.914 87.1742C106.887 87.2351 106.934 87.2825 107.002 87.2825Z" fill="white"/>
<path d="M150.899 87.2956C154.912 88.8191 154.321 92.7529 157.743 94.6352C161.708 96.8154 168.532 94.8383 170.413 91.1414C172.015 87.9795 169.469 84.5941 171.262 83.1045C172.687 81.9196 174.623 83.7951 177.848 83.2399C181.345 82.6373 185.256 79.3535 185.33 75.6431C185.419 71.1134 179.749 67.877 175.458 67.4234C174.731 67.3489 169.408 66.7801 166.936 70.4025C165.741 72.1562 166.93 74.1738 165.816 74.8712C164.519 75.677 162.903 73.3072 160.337 73.7879C158.435 74.1468 158.218 75.6634 156.1 76.6655C153.866 77.7217 152.569 76.5707 149.819 76.8415C147.979 77.0176 144.19 77.4441 143.185 79.8275C142.316 81.8858 143.81 84.743 145.738 86.0769C147.565 87.3227 148.658 86.4425 150.899 87.2956Z" fill="url(#paint19_linear_1897_0)"/>
<path d="M158.422 184.233L158.286 186.989C158.347 187.51 158.728 187.923 159.216 187.984C160.038 188.085 161.797 188.187 163.087 188.045C163.65 187.977 164.017 187.361 163.847 186.779C163.535 185.716 162.958 184.118 162.129 183.177H159.291C158.768 183.177 158.361 183.671 158.422 184.233Z" fill="url(#paint20_linear_1897_0)"/>
<path d="M148.542 151.57L148.026 154.61C148.026 154.61 149.758 172.126 150.07 179.134C150.118 180.231 149.833 181.321 149.255 182.256L146.241 187.137L153.907 182.628L154.056 181.694L152.8 179.974L154.443 160.352C154.538 159.201 154.3 158.043 153.757 157.021L152.175 154.048L148.542 151.57Z" fill="url(#paint21_linear_1897_0)"/>
<path d="M145.732 187.842H148.176C148.631 187.842 149.066 187.632 149.344 187.273C150.104 186.285 151.686 184.355 152.44 184.308C153.459 184.24 153.33 187.842 153.33 187.842H153.9L154.62 183.366C154.803 182.242 154.239 181.125 153.228 180.597C153.228 180.597 152.997 182.31 151.734 183.069C150.471 183.827 146.608 186.542 146.608 186.542C146.608 186.542 146.132 186.474 145.616 186.569C144.842 186.698 144.951 187.842 145.732 187.842Z" fill="url(#paint22_linear_1897_0)"/>
<path d="M163.209 151.834L162.251 156.615C162.251 156.615 164.628 162.404 164.03 167.712C163.433 173.02 160.961 181.524 160.961 181.524C160.961 181.524 163.548 184.842 161.382 185.255C159.216 185.668 158.11 184.564 158.938 182.303L157.587 151.57L163.209 151.834Z" fill="url(#paint23_linear_1897_0)"/>
<path d="M162.367 122.869C162.367 122.869 165.843 128.848 165.843 133.811C165.843 137.041 163.25 156.229 163.25 156.229C163.25 156.229 153.275 157.712 147.388 156.229C147.388 156.229 144.842 135.693 145.385 132.2C146.098 127.623 149.337 122.084 149.337 122.084L162.367 122.869Z" fill="url(#paint24_linear_1897_0)"/>
<path d="M167.14 97.364C167.14 97.364 153.316 97.3031 146.723 99.1379L147.076 109.91L149.323 122.091C149.323 122.091 153.01 125.077 162.36 122.876L163.209 118.672C163.48 117.812 165.212 109.24 165.266 108.346L167.14 97.364Z" fill="url(#paint25_linear_1897_0)"/>
<path d="M162.625 121.881L162.367 122.87L161.81 141.232C161.769 142.661 160.649 143.825 159.223 143.913C156.833 144.062 153.173 144.198 150.199 143.906C148.875 143.778 147.904 142.613 148 141.286L149.33 122.077L149.174 121.062C149.174 121.069 159.386 120.087 162.625 121.881Z" fill="url(#paint26_linear_1897_0)"/>
<path d="M155.108 89.1641L158.951 98.2978C158.951 98.2978 154.45 100.986 152.134 99.7061L150.783 90.3828L155.108 89.1641Z" fill="url(#paint27_linear_1897_0)"/>
<path d="M159.834 98.0478L158.653 96.3145C158.653 96.3145 156.84 96.9983 155.808 97.4587L155.604 99.2327L154.273 97.8921L151.645 97.9801L151.611 100.045C151.978 101.325 153.146 101.616 154.891 101.955L155.814 99.991L157.546 101.359C157.546 101.352 159.725 99.6795 159.834 98.0478Z" fill="url(#paint28_linear_1897_0)"/>
<path d="M146.825 85.6304C146.825 88.9955 148.984 92.2793 151.645 92.2793C154.307 92.2793 156.466 88.9955 156.466 85.6304C156.466 82.2653 154.307 80.0986 151.645 80.0986C148.984 80.0986 146.825 82.2653 146.825 85.6304Z" fill="url(#paint29_linear_1897_0)"/>
<path d="M153.927 80.0984C153.927 80.0984 157.791 78.8796 157.736 81.2562C157.675 83.626 156.378 85.1155 157.207 86.1921C158.035 87.2686 156.344 87.0452 155.917 85.7587C155.489 84.4723 153.791 81.3374 152.298 81.7166C150.804 82.0958 149.527 86.0567 146.832 86.1921C146.832 86.1921 145.107 84.2218 145.582 81.7166C146.058 79.2046 148.156 77.0448 153.927 80.0984Z" fill="url(#paint30_linear_1897_0)"/>
<path d="M135.065 123.235C139.818 115.002 146.73 99.1377 146.73 99.1377C146.73 99.1377 149.48 104.148 147.728 109.721C146.56 113.424 140.945 120.892 137.312 125.476C136.565 124.346 135.649 123.621 135.065 123.235Z" fill="url(#paint31_linear_1897_0)"/>
<path d="M125.423 129.809C126.598 127.162 129.952 127.291 131.391 127.48C131.84 127.541 132.294 127.372 132.58 127.02C133.279 126.167 134.128 124.847 135.058 123.229C135.642 123.614 136.558 124.346 137.299 125.47C135.472 127.778 133.714 129.803 133.714 129.803H125.423V129.809Z" fill="url(#paint32_linear_1897_0)"/>
<path d="M167.14 97.3638C167.14 97.3638 174.426 106.315 174.372 112.307C174.317 118.299 166.196 122.687 166.196 122.687L163.494 122.24C163.494 122.24 176.055 113.871 165.266 107.588L167.14 97.3638Z" fill="url(#paint33_linear_1897_0)"/>
<path opacity="0.74" d="M180.347 79.3398C179.898 79.8409 179.274 80.1659 178.629 80.3351C177.977 80.5112 177.298 80.545 176.626 80.4976C175.274 80.4096 173.95 80.0305 172.572 80.044C171.886 80.0575 171.194 80.1591 170.555 80.4299C170.236 80.5654 169.938 80.7482 169.673 80.9716C169.408 81.195 169.184 81.4726 169.007 81.7638C168.647 82.3596 168.471 83.0435 168.383 83.7138C168.294 84.3976 168.308 85.0747 168.308 85.7518C168.308 86.4288 168.308 87.1059 168.199 87.7627C168.091 88.4194 167.867 89.0627 167.548 89.6517C166.909 90.8298 165.891 91.7981 164.662 92.3533C163.433 92.8949 162.021 93.0168 160.717 92.7053C160.058 92.5564 159.434 92.2923 158.856 91.9402C158.286 91.5814 157.77 91.1142 157.471 90.5116L157.417 90.5387C157.716 91.1616 158.239 91.6423 158.809 92.0147C159.386 92.3803 160.024 92.6579 160.69 92.8204C162.021 93.1454 163.46 93.0303 164.723 92.4819C165.979 91.9199 167.031 90.9314 167.69 89.7262C168.016 89.1236 168.254 88.4668 168.369 87.7898C168.485 87.1127 168.491 86.4288 168.485 85.7518C168.478 85.0747 168.464 84.3976 168.546 83.7341C168.634 83.0705 168.797 82.4138 169.143 81.8382C169.313 81.5539 169.523 81.2966 169.775 81.0799C170.026 80.8633 170.311 80.694 170.617 80.5586C171.228 80.2945 171.907 80.1862 172.579 80.1726C173.93 80.1523 175.261 80.5247 176.619 80.5992C177.298 80.6398 177.997 80.5924 178.656 80.4096C179.314 80.2268 179.946 79.8883 180.394 79.3669L180.347 79.3398Z" fill="white"/>
<path opacity="0.74" d="M168.111 80.5454C167.439 80.8704 166.936 81.4798 166.631 82.1433C166.312 82.8136 166.189 83.5517 166.142 84.2829C166.088 85.0141 166.108 85.7522 166.081 86.4766C166.054 87.2079 165.979 87.9391 165.741 88.6297C165.273 90.0042 164.085 91.1146 162.679 91.5006C161.274 91.8865 159.685 91.5344 158.571 90.5933L158.53 90.6339C159.658 91.5954 161.267 91.9542 162.693 91.5683C164.125 91.1756 165.327 90.0584 165.816 88.6568C166.06 87.9594 166.135 87.2147 166.162 86.4834C166.189 85.7522 166.162 85.0141 166.21 84.2897C166.257 83.5652 166.38 82.8339 166.685 82.1704C166.984 81.5136 167.473 80.9178 168.131 80.5996L168.111 80.5454Z" fill="white"/>
<path opacity="0.74" d="M151.17 78.7645C150.138 78.69 149.092 78.6156 148.054 78.7442C147.531 78.7984 147.015 78.9135 146.526 79.0963C146.03 79.2791 145.555 79.5296 145.154 79.8749C144.747 80.2202 144.421 80.6739 144.285 81.202C144.143 81.7233 144.211 82.2853 144.394 82.7795C144.577 83.2806 144.883 83.7207 145.229 84.1066C145.582 84.4925 145.976 84.8311 146.37 85.1696L146.41 85.129C146.037 84.7701 145.657 84.4181 145.331 84.0254C144.998 83.6327 144.72 83.1993 144.557 82.7254C144.387 82.2514 144.333 81.7369 144.469 81.2561C144.598 80.7754 144.903 80.3624 145.283 80.0306C145.664 79.6989 146.112 79.4484 146.594 79.2723C147.069 79.0963 147.572 78.9744 148.081 78.9067C149.099 78.7713 150.138 78.7984 151.177 78.8322L151.17 78.7645Z" fill="white"/>
<path d="M182.961 189C183.3 189 183.64 188.851 183.871 188.566C184.271 188.065 184.19 187.334 183.687 186.935L114.057 131.353C113.555 130.954 112.821 131.035 112.421 131.536C112.02 132.037 112.101 132.768 112.604 133.168L182.234 188.749C182.452 188.918 182.71 189 182.961 189Z" fill="url(#paint34_linear_1897_0)"/>
<path d="M113.33 189C113.588 189 113.84 188.918 114.057 188.742L183.687 133.168C184.19 132.768 184.271 132.037 183.871 131.536C183.47 131.035 182.737 130.954 182.234 131.353L112.604 186.935C112.101 187.334 112.02 188.065 112.421 188.566C112.651 188.851 112.991 189 113.33 189Z" fill="url(#paint35_linear_1897_0)"/>
<path d="M100.246 132.585H189.452C190.307 132.585 191 131.895 191 131.042C191 130.189 190.307 129.498 189.452 129.498H100.246C98.9085 129.498 98.2024 131.076 99.0919 132.071C99.3838 132.396 99.8048 132.585 100.246 132.585Z" fill="url(#paint36_linear_1897_0)"/>
<path d="M186.729 129.105C186.736 128.739 149.398 128.827 142.242 128.848C141.834 128.848 141.644 129.355 141.95 129.62C146.438 133.533 166.672 151.232 171.988 157.069C172.633 157.773 173.774 157.651 174.249 156.825C177.413 151.347 186.641 134.853 186.729 129.105Z" fill="url(#paint37_linear_1897_0)"/>
<path d="M153.431 127.751C154.416 125.828 158.87 121.861 161.545 121.881C163.351 121.894 165.701 122.003 166.95 122.138C167.48 122.192 167.935 122.585 168.125 123.147L168.987 127.684C169.102 128.286 168.695 128.848 168.145 128.848H153.764C153.248 128.848 153.187 128.239 153.431 127.751ZM160.411 125.361L166.583 125.381C166.794 125.381 166.943 125.185 166.896 124.989L166.658 124.034C166.543 123.58 166.169 123.242 165.707 123.174C164.594 123.012 162.564 122.768 161.606 122.957C160.615 123.161 160.235 124.346 160.099 124.975C160.058 125.172 160.208 125.361 160.411 125.361Z" fill="url(#paint38_linear_1897_0)"/>
<path d="M161.552 124.996H165.273V125.388H161.552V124.996Z" fill="url(#paint39_linear_1897_0)"/>
<path d="M152.691 128.401H169.238V128.848H152.691V128.401Z" fill="url(#paint40_linear_1897_0)"/>
<path d="M165.599 122.03L163.644 121.102C163.243 120.912 162.781 120.892 162.36 121.048L160.962 121.569C160.962 121.569 160.554 123.275 161.145 123.682C161.742 124.088 163.175 123.235 163.175 123.235C163.175 123.235 163.712 121.738 165.599 122.03Z" fill="url(#paint41_linear_1897_0)"/>
<path d="M34.6558 131.848H43.0549V134.685H34.6558V131.848Z" fill="url(#paint42_linear_1897_0)"/>
<path d="M32.8225 135.192C23.7172 146.865 15.7526 167.841 22.6104 181.802C23.1808 182.967 24.6949 183.732 26.3721 183.732H52.296C54.041 183.732 55.5891 182.906 56.1187 181.68C57.3409 178.857 59.2896 173.379 59.405 166.974C59.4865 162.221 57.0014 157.637 52.4929 154.218L47.0542 150.094C46.3209 149.539 45.9135 148.788 45.9203 148.016L46.0832 136.688C46.09 136.018 45.7912 135.368 45.2345 134.847C44.474 134.129 43.3061 133.716 42.0704 133.716H36.2921C34.8663 133.716 33.5354 134.278 32.8225 135.192Z" fill="url(#paint43_linear_1897_0)"/>
<path d="M33.6715 133.269H44.0398C44.5354 133.269 44.936 132.856 44.9089 132.355L44.678 128.029C44.6508 127.568 44.2706 127.209 43.8089 127.209H33.9499C33.4949 127.209 33.1147 127.562 33.0808 128.022L32.8024 132.348C32.7752 132.843 33.1758 133.269 33.6715 133.269Z" fill="url(#paint44_linear_1897_0)"/>
<path d="M54.265 119.511C54.1292 122.07 53.9119 131.258 57.6328 135.524C57.9044 135.835 57.9112 136.289 57.6464 136.601C57.3612 136.939 56.8588 137 56.5057 136.729C54.7878 135.429 50.1639 131.468 49.3288 125.937C49.288 125.645 49.0843 125.402 48.8059 125.293L43.2111 123.14C42.6068 122.91 42.4913 122.104 43.0006 121.712C44.9018 120.249 49.0504 117.669 53.6064 118.658C54.007 118.746 54.2854 119.105 54.265 119.511Z" fill="url(#paint45_linear_1897_0)"/>
<path d="M55.0867 114.196V121.218L59.4865 120.52C60.0093 120.439 60.3963 119.999 60.4167 119.478L60.5457 115.903C60.566 115.334 60.1519 114.846 59.5883 114.779L55.0867 114.196Z" fill="url(#paint46_linear_1897_0)"/>
<path d="M36.822 114.494L29.8488 119.877C29.2105 120.371 28.7896 121.082 28.6606 121.874L28.4976 122.89C28.2328 124.576 29.3599 126.167 31.0438 126.478L35.0023 127.209H43.0551L44.2908 123.553L51.9226 121.732L55.0867 121.217V114.196L38.825 113.837C38.0985 113.823 37.3923 114.054 36.822 114.494Z" fill="url(#paint47_linear_1897_0)"/>
<path d="M38.6417 116.552L36.7812 124.779C36.6115 125.53 35.885 126.024 35.1177 125.903L31.6412 125.347C30.9283 125.232 30.4055 124.623 30.4055 123.898V122.775C30.4055 122.321 30.616 121.894 30.9758 121.617L38.051 116.173C38.3294 115.963 38.7232 116.214 38.6417 116.552Z" fill="url(#paint48_linear_1897_0)"/>
<path d="M34.1468 132.592C33.9838 132.592 33.8548 132.463 33.8548 132.301V128.245C33.8548 128.083 33.9838 127.954 34.1468 127.954C34.3097 127.954 34.4387 128.083 34.4387 128.245V132.301C34.4319 132.463 34.3029 132.592 34.1468 132.592Z" fill="url(#paint49_linear_1897_0)"/>
<path d="M35.4977 132.592C35.3348 132.592 35.2059 132.463 35.2059 132.301V128.245C35.2059 128.083 35.3348 127.954 35.4977 127.954C35.6606 127.954 35.7896 128.083 35.7896 128.245V132.301C35.7896 132.463 35.6606 132.592 35.4977 132.592Z" fill="url(#paint50_linear_1897_0)"/>
<path d="M36.8559 132.592C36.6928 132.592 36.5638 132.463 36.5638 132.301V128.245C36.5638 128.083 36.6928 127.954 36.8559 127.954C37.0189 127.954 37.1479 128.083 37.1479 128.245V132.301C37.1479 132.463 37.0189 132.592 36.8559 132.592Z" fill="url(#paint51_linear_1897_0)"/>
<path d="M38.2138 132.592C38.0509 132.592 37.9219 132.463 37.9219 132.301V128.245C37.9219 128.083 38.0509 127.954 38.2138 127.954C38.3767 127.954 38.5056 128.083 38.5056 128.245V132.301C38.5056 132.463 38.3767 132.592 38.2138 132.592Z" fill="url(#paint52_linear_1897_0)"/>
<path d="M39.5717 132.592C39.4087 132.592 39.2796 132.463 39.2796 132.301V128.245C39.2796 128.083 39.4087 127.954 39.5717 127.954C39.7347 127.954 39.8638 128.083 39.8638 128.245V132.301C39.8638 132.463 39.7279 132.592 39.5717 132.592Z" fill="url(#paint53_linear_1897_0)"/>
<path d="M40.9298 132.592C40.7669 132.592 40.638 132.463 40.638 132.301V128.245C40.638 128.083 40.7669 127.954 40.9298 127.954C41.0927 127.954 41.2217 128.083 41.2217 128.245V132.301C41.2149 132.463 41.0859 132.592 40.9298 132.592Z" fill="url(#paint54_linear_1897_0)"/>
<path d="M42.2808 132.592C42.1178 132.592 41.9888 132.463 41.9888 132.301V128.245C41.9888 128.083 42.1178 127.954 42.2808 127.954C42.4437 127.954 42.5728 128.083 42.5728 128.245V132.301C42.5728 132.463 42.4437 132.592 42.2808 132.592Z" fill="url(#paint55_linear_1897_0)"/>
<path d="M43.6387 132.592C43.4757 132.592 43.3467 132.463 43.3467 132.301V128.245C43.3467 128.083 43.4757 127.954 43.6387 127.954C43.8017 127.954 43.9307 128.083 43.9307 128.245V132.301C43.9307 132.463 43.8017 132.592 43.6387 132.592Z" fill="url(#paint56_linear_1897_0)"/>
<path d="M29.1156 155.173C27.6965 158.87 25.6867 165.661 26.0873 173.725C26.2027 175.979 28.0768 177.746 30.3378 177.746H48.8877C50.9246 177.746 52.6764 176.311 53.0634 174.32L54.6115 166.46C54.9239 164.889 54.3128 163.277 53.0499 162.289C49.4241 159.479 41.5478 153.961 33.8957 152.519C31.8655 152.14 29.8557 153.25 29.1156 155.173Z" fill="url(#paint57_linear_1897_0)"/>
</g>
<defs>
<linearGradient id="paint0_linear_1897_0" x1="-21.9426" y1="242.274" x2="144.408" y2="35.0945" gradientUnits="userSpaceOnUse">
<stop stop-color="#B37CFF"/>
<stop offset="1" stop-color="#F895E7"/>
</linearGradient>
<linearGradient id="paint1_linear_1897_0" x1="-18.4533" y1="67.3077" x2="90.7153" y2="99.2123" gradientUnits="userSpaceOnUse">
<stop stop-color="#A737D5"/>
<stop offset="1" stop-color="#EF497A"/>
</linearGradient>
<linearGradient id="paint2_linear_1897_0" x1="21.2888" y1="118.757" x2="64.6988" y2="18.9411" gradientUnits="userSpaceOnUse">
<stop stop-color="#CE1567"/>
<stop offset="1" stop-color="#7A1DBC"/>
</linearGradient>
<linearGradient id="paint3_linear_1897_0" x1="60.4998" y1="20.8952" x2="218.24" y2="311.023" gradientUnits="userSpaceOnUse">
<stop stop-color="#53D8FF"/>
<stop offset="1" stop-color="#3840F7"/>
</linearGradient>
<linearGradient id="paint4_linear_1897_0" x1="203.747" y1="151.17" x2="-134.262" y2="13.9712" gradientUnits="userSpaceOnUse">
<stop stop-color="#53D8FF"/>
<stop offset="1" stop-color="#3840F7"/>
</linearGradient>
<linearGradient id="paint5_linear_1897_0" x1="97.9304" y1="9.85702" x2="104.164" y2="69.8704" gradientUnits="userSpaceOnUse">
<stop stop-color="#53D8FF"/>
<stop offset="1" stop-color="#3840F7"/>
</linearGradient>
<linearGradient id="paint6_linear_1897_0" x1="161.027" y1="42.6575" x2="131.988" y2="42.6575" gradientUnits="userSpaceOnUse">
<stop stop-color="#2B3582"/>
<stop offset="1" stop-color="#150E42"/>
</linearGradient>
<linearGradient id="paint7_linear_1897_0" x1="81.2581" y1="44.6782" x2="45.1042" y2="44.6782" gradientUnits="userSpaceOnUse">
<stop stop-color="#2B3582"/>
<stop offset="1" stop-color="#150E42"/>
</linearGradient>
<linearGradient id="paint8_linear_1897_0" x1="124.16" y1="42.7704" x2="109.67" y2="42.7704" gradientUnits="userSpaceOnUse">
<stop stop-color="#9CFFFB"/>
<stop offset="1" stop-color="#9BFFFA"/>
</linearGradient>
<linearGradient id="paint9_linear_1897_0" x1="103.446" y1="42.7704" x2="88.9559" y2="42.7704" gradientUnits="userSpaceOnUse">
<stop stop-color="#9CFFFB"/>
<stop offset="1" stop-color="#9BFFFA"/>
</linearGradient>
<linearGradient id="paint10_linear_1897_0" x1="81.2582" y1="36.3772" x2="73.5218" y2="36.3772" gradientUnits="userSpaceOnUse">
<stop stop-color="#9CFFFB"/>
<stop offset="1" stop-color="#9BFFFA"/>
</linearGradient>
<linearGradient id="paint11_linear_1897_0" x1="71.8821" y1="36.3772" x2="64.1458" y2="36.3772" gradientUnits="userSpaceOnUse">
<stop stop-color="#9CFFFB"/>
<stop offset="1" stop-color="#9BFFFA"/>
</linearGradient>
<linearGradient id="paint12_linear_1897_0" x1="62.2164" y1="36.3772" x2="54.48" y2="36.3772" gradientUnits="userSpaceOnUse">
<stop stop-color="#9CFFFB"/>
<stop offset="1" stop-color="#9BFFFA"/>
</linearGradient>
<linearGradient id="paint13_linear_1897_0" x1="52.8405" y1="36.3772" x2="45.1041" y2="36.3772" gradientUnits="userSpaceOnUse">
<stop stop-color="#9CFFFB"/>
<stop offset="1" stop-color="#9BFFFA"/>
</linearGradient>
<linearGradient id="paint14_linear_1897_0" x1="102.175" y1="181.147" x2="102.591" y2="123.637" gradientUnits="userSpaceOnUse">
<stop stop-color="#53D8FF"/>
<stop offset="1" stop-color="#3840F7"/>
</linearGradient>
<linearGradient id="paint15_linear_1897_0" x1="141.752" y1="110.541" x2="63.1811" y2="110.541" gradientUnits="userSpaceOnUse">
<stop stop-color="#9CFFFB"/>
<stop offset="1" stop-color="#9BFFFA"/>
</linearGradient>
<linearGradient id="paint16_linear_1897_0" x1="62.3967" y1="87.426" x2="124.961" y2="123.461" gradientUnits="userSpaceOnUse">
<stop stop-color="#2B3582"/>
<stop offset="1" stop-color="#150E42"/>
</linearGradient>
<linearGradient id="paint17_linear_1897_0" x1="132.171" y1="110.151" x2="71.9802" y2="110.151" gradientUnits="userSpaceOnUse">
<stop stop-color="#2B3582"/>
<stop offset="1" stop-color="#150E42"/>
</linearGradient>
<linearGradient id="paint18_linear_1897_0" x1="107.377" y1="116.121" x2="31.6487" y2="80.8039" gradientUnits="userSpaceOnUse">
<stop stop-color="#2B3582"/>
<stop offset="1" stop-color="#150E42"/>
</linearGradient>
<linearGradient id="paint19_linear_1897_0" x1="174.234" y1="77.7044" x2="150.452" y2="88.7496" gradientUnits="userSpaceOnUse">
<stop stop-color="#2B3582"/>
<stop offset="1" stop-color="#150E42"/>
</linearGradient>
<linearGradient id="paint20_linear_1897_0" x1="158.288" y1="185.645" x2="163.888" y2="185.645" gradientUnits="userSpaceOnUse">
<stop stop-color="#A737D5"/>
<stop offset="1" stop-color="#EF497A"/>
</linearGradient>
<linearGradient id="paint21_linear_1897_0" x1="147.572" y1="208.549" x2="156.036" y2="109.349" gradientUnits="userSpaceOnUse">
<stop stop-color="#F9B776"/>
<stop offset="1" stop-color="#F47960"/>
</linearGradient>
<linearGradient id="paint22_linear_1897_0" x1="145.086" y1="184.215" x2="154.656" y2="184.215" gradientUnits="userSpaceOnUse">
<stop stop-color="#A737D5"/>
<stop offset="1" stop-color="#EF497A"/>
</linearGradient>
<linearGradient id="paint23_linear_1897_0" x1="164.128" y1="168.454" x2="157.591" y2="168.454" gradientUnits="userSpaceOnUse">
<stop stop-color="#F9B776"/>
<stop offset="1" stop-color="#F47960"/>
</linearGradient>
<linearGradient id="paint24_linear_1897_0" x1="158.197" y1="158.254" x2="153.343" y2="116.55" gradientUnits="userSpaceOnUse">
<stop stop-color="#A737D5"/>
<stop offset="1" stop-color="#EF497A"/>
</linearGradient>
<linearGradient id="paint25_linear_1897_0" x1="156.903" y1="97.0507" x2="158.732" y2="167.914" gradientUnits="userSpaceOnUse">
<stop stop-color="#A737D5"/>
<stop offset="1" stop-color="#EF497A"/>
</linearGradient>
<linearGradient id="paint26_linear_1897_0" x1="143.902" y1="109.966" x2="167.125" y2="155.025" gradientUnits="userSpaceOnUse">
<stop stop-color="#233894"/>
<stop offset="0.9964" stop-color="#DD397A"/>
</linearGradient>
<linearGradient id="paint27_linear_1897_0" x1="158.017" y1="104.133" x2="151.662" y2="90.036" gradientUnits="userSpaceOnUse">
<stop stop-color="#F9B776"/>
<stop offset="1" stop-color="#F47960"/>
</linearGradient>
<linearGradient id="paint28_linear_1897_0" x1="159.874" y1="98.1896" x2="151.737" y2="100.475" gradientUnits="userSpaceOnUse">
<stop stop-color="#9CFFFB"/>
<stop offset="1" stop-color="#9BFFFA"/>
</linearGradient>
<linearGradient id="paint29_linear_1897_0" x1="153.077" y1="95.2003" x2="148.889" y2="67.0877" gradientUnits="userSpaceOnUse">
<stop stop-color="#F9B776"/>
<stop offset="1" stop-color="#F47960"/>
</linearGradient>
<linearGradient id="paint30_linear_1897_0" x1="170.278" y1="70.8281" x2="148.578" y2="85.5312" gradientUnits="userSpaceOnUse">
<stop stop-color="#2B3582"/>
<stop offset="1" stop-color="#150E42"/>
</linearGradient>
<linearGradient id="paint31_linear_1897_0" x1="141.263" y1="98.1683" x2="143.043" y2="167.13" gradientUnits="userSpaceOnUse">
<stop stop-color="#A737D5"/>
<stop offset="1" stop-color="#EF497A"/>
</linearGradient>
<linearGradient id="paint32_linear_1897_0" x1="137.308" y1="126.521" x2="125.424" y2="126.521" gradientUnits="userSpaceOnUse">
<stop stop-color="#F9B776"/>
<stop offset="1" stop-color="#F47960"/>
</linearGradient>
<linearGradient id="paint33_linear_1897_0" x1="168.369" y1="95.3672" x2="170.297" y2="170.089" gradientUnits="userSpaceOnUse">
<stop stop-color="#A737D5"/>
<stop offset="1" stop-color="#EF497A"/>
</linearGradient>
<linearGradient id="paint34_linear_1897_0" x1="184.127" y1="160.05" x2="112.169" y2="160.05" gradientUnits="userSpaceOnUse">
<stop stop-color="#2B3582"/>
<stop offset="1" stop-color="#150E42"/>
</linearGradient>
<linearGradient id="paint35_linear_1897_0" x1="184.127" y1="160.05" x2="112.169" y2="160.05" gradientUnits="userSpaceOnUse">
<stop stop-color="#2B3582"/>
<stop offset="1" stop-color="#150E42"/>
</linearGradient>
<linearGradient id="paint36_linear_1897_0" x1="103.498" y1="119.696" x2="208.796" y2="148.743" gradientUnits="userSpaceOnUse">
<stop stop-color="#FDF53F"/>
<stop offset="1" stop-color="#D93C65"/>
</linearGradient>
<linearGradient id="paint37_linear_1897_0" x1="182.036" y1="160.971" x2="129.827" y2="67.2596" gradientUnits="userSpaceOnUse">
<stop stop-color="#FDF53F"/>
<stop offset="1" stop-color="#D93C65"/>
</linearGradient>
<linearGradient id="paint38_linear_1897_0" x1="163.136" y1="130.405" x2="158.676" y2="121.879" gradientUnits="userSpaceOnUse">
<stop stop-color="#9CFFFB"/>
<stop offset="1" stop-color="#9BFFFA"/>
</linearGradient>
<linearGradient id="paint39_linear_1897_0" x1="165.271" y1="125.187" x2="161.55" y2="125.187" gradientUnits="userSpaceOnUse">
<stop stop-color="#53D8FF"/>
<stop offset="1" stop-color="#3840F7"/>
</linearGradient>
<linearGradient id="paint40_linear_1897_0" x1="169.239" y1="128.627" x2="152.693" y2="128.627" gradientUnits="userSpaceOnUse">
<stop stop-color="#53D8FF"/>
<stop offset="1" stop-color="#3840F7"/>
</linearGradient>
<linearGradient id="paint41_linear_1897_0" x1="165.597" y1="122.364" x2="160.828" y2="122.364" gradientUnits="userSpaceOnUse">
<stop stop-color="#F9B776"/>
<stop offset="1" stop-color="#F47960"/>
</linearGradient>
<linearGradient id="paint42_linear_1897_0" x1="36.9398" y1="112.275" x2="39.0767" y2="135.848" gradientUnits="userSpaceOnUse">
<stop stop-color="#FDF53F"/>
<stop offset="1" stop-color="#D93C65"/>
</linearGradient>
<linearGradient id="paint43_linear_1897_0" x1="55.2877" y1="142.854" x2="10.7311" y2="207.344" gradientUnits="userSpaceOnUse">
<stop stop-color="#FDF53F"/>
<stop offset="1" stop-color="#D93C65"/>
</linearGradient>
<linearGradient id="paint44_linear_1897_0" x1="27.3723" y1="112.326" x2="47.0167" y2="143.448" gradientUnits="userSpaceOnUse">
<stop stop-color="#FDF53F"/>
<stop offset="1" stop-color="#D93C65"/>
</linearGradient>
<linearGradient id="paint45_linear_1897_0" x1="62.339" y1="138.696" x2="38.5161" y2="107.981" gradientUnits="userSpaceOnUse">
<stop stop-color="#FDF53F"/>
<stop offset="1" stop-color="#D93C65"/>
</linearGradient>
<linearGradient id="paint46_linear_1897_0" x1="68.4284" y1="99.8294" x2="49.6831" y2="130.097" gradientUnits="userSpaceOnUse">
<stop stop-color="#FDF53F"/>
<stop offset="1" stop-color="#D93C65"/>
</linearGradient>
<linearGradient id="paint47_linear_1897_0" x1="28.1391" y1="109.413" x2="53.3972" y2="128.357" gradientUnits="userSpaceOnUse">
<stop stop-color="#FDF53F"/>
<stop offset="1" stop-color="#D93C65"/>
</linearGradient>
<linearGradient id="paint48_linear_1897_0" x1="1.96642" y1="94.4919" x2="49.2905" y2="132.428" gradientUnits="userSpaceOnUse">
<stop stop-color="#FDF53F"/>
<stop offset="1" stop-color="#D93C65"/>
</linearGradient>
<linearGradient id="paint49_linear_1897_0" x1="34.1514" y1="128.87" x2="34.1019" y2="138.346" gradientUnits="userSpaceOnUse">
<stop stop-color="#FDF53F"/>
<stop offset="1" stop-color="#D93C65"/>
</linearGradient>
<linearGradient id="paint50_linear_1897_0" x1="35.5077" y1="128.87" x2="35.4583" y2="138.346" gradientUnits="userSpaceOnUse">
<stop stop-color="#FDF53F"/>
<stop offset="1" stop-color="#D93C65"/>
</linearGradient>
<linearGradient id="paint51_linear_1897_0" x1="36.8646" y1="128.87" x2="36.8151" y2="138.346" gradientUnits="userSpaceOnUse">
<stop stop-color="#FDF53F"/>
<stop offset="1" stop-color="#D93C65"/>
</linearGradient>
<linearGradient id="paint52_linear_1897_0" x1="38.2211" y1="128.87" x2="38.1716" y2="138.346" gradientUnits="userSpaceOnUse">
<stop stop-color="#FDF53F"/>
<stop offset="1" stop-color="#D93C65"/>
</linearGradient>
<linearGradient id="paint53_linear_1897_0" x1="39.5776" y1="128.87" x2="39.5281" y2="138.346" gradientUnits="userSpaceOnUse">
<stop stop-color="#FDF53F"/>
<stop offset="1" stop-color="#D93C65"/>
</linearGradient>
<linearGradient id="paint54_linear_1897_0" x1="40.9343" y1="128.87" x2="40.8848" y2="138.346" gradientUnits="userSpaceOnUse">
<stop stop-color="#FDF53F"/>
<stop offset="1" stop-color="#D93C65"/>
</linearGradient>
<linearGradient id="paint55_linear_1897_0" x1="42.2907" y1="128.87" x2="42.2412" y2="138.346" gradientUnits="userSpaceOnUse">
<stop stop-color="#FDF53F"/>
<stop offset="1" stop-color="#D93C65"/>
</linearGradient>
<linearGradient id="paint56_linear_1897_0" x1="43.6472" y1="128.87" x2="43.5978" y2="138.346" gradientUnits="userSpaceOnUse">
<stop stop-color="#FDF53F"/>
<stop offset="1" stop-color="#D93C65"/>
</linearGradient>
<linearGradient id="paint57_linear_1897_0" x1="40.4233" y1="157.498" x2="40.1533" y2="209.214" gradientUnits="userSpaceOnUse">
<stop stop-color="#FDF53F"/>
<stop offset="1" stop-color="#D93C65"/>
</linearGradient>
<clipPath id="clip0_1897_0">
<rect width="191" height="189" fill="white" transform="matrix(-1 0 0 1 191 0)"/>
</clipPath>
</defs>
</svg>
