<svg width="185" height="188" viewBox="0 0 185 188" fill="none" xmlns="http://www.w3.org/2000/svg">
<g clip-path="url(#clip0_1897_236)">
<path d="M45.1159 10.6892C38.797 19.5051 45.9445 33.9744 36.6413 40.5544C27.5873 46.9598 16.6538 36.1901 8.12533 41.6958C-4.52598 49.8671 -2.633 87.8699 15.4884 111.659C20.9383 118.816 25.5259 121.623 27.4863 129.673C31.6966 146.956 16.1553 157.04 19.0049 165.594C25.4114 184.858 126.918 202.026 168.328 144.773C187.669 118.037 190.929 79.1682 174.216 49.4441C144.009 -4.26349 59.283 -9.09107 45.1159 10.6892Z" fill="#F4F7FA"/>
<path d="M137.137 11.4348L137.11 11.3609L137.096 11.3072L137.069 11.2132C137.049 11.1528 137.036 11.0991 137.022 11.0454C136.995 10.9379 136.968 10.8238 136.941 10.7164C136.894 10.5015 136.854 10.2866 136.827 10.0718C136.766 9.64207 136.732 9.20564 136.739 8.75578C136.746 7.86278 136.908 6.92278 137.305 6.02307C137.507 5.57993 137.763 5.1435 138.073 4.76078C138.383 4.37807 138.733 4.02893 139.11 3.74693C139.865 3.1695 140.7 2.80021 141.502 2.56521C141.704 2.5115 141.906 2.45778 142.101 2.41078C142.304 2.36378 142.499 2.33021 142.694 2.29664L142.842 2.26978C142.89 2.26307 142.944 2.25635 142.991 2.24964L143.287 2.21607L143.583 2.1825C143.691 2.17578 143.813 2.16907 143.92 2.16235C144.035 2.15564 144.149 2.14893 144.264 2.14893L144.614 2.16235C144.843 2.16907 145.079 2.20935 145.315 2.24293C145.375 2.25635 145.429 2.25635 145.49 2.2765L145.665 2.3235L146.009 2.4175C146.123 2.45778 146.238 2.49807 146.345 2.54507C146.46 2.59207 146.568 2.62564 146.676 2.68607C147.545 3.10235 148.279 3.7335 148.798 4.45193C149.323 5.17035 149.68 5.95593 149.909 6.74821C150.131 7.5405 150.239 8.34621 150.246 9.14521C150.253 9.94421 150.152 10.7365 149.95 11.5154C149.747 12.2875 149.431 13.0395 149.006 13.7311L148.845 13.9862L148.663 14.2346C148.602 14.3152 148.548 14.4025 148.474 14.4764L148.272 14.7114L148.171 14.8255C148.137 14.8658 148.097 14.8994 148.063 14.9329L147.841 15.1478C147.76 15.2284 147.706 15.2754 147.639 15.3358L147.45 15.5104C146.945 15.9669 146.44 16.4235 146.009 16.8734L145.699 17.2158L145.564 17.3904C145.524 17.4508 145.47 17.5045 145.429 17.5649C145.355 17.6791 145.268 17.7932 145.207 17.9141L145.106 18.0886L145.025 18.2766C144.81 18.7735 144.708 19.3711 144.655 20.0156C144.601 20.6602 144.594 21.3384 144.587 22.0165V22.0232C144.58 22.4596 144.223 22.8155 143.786 22.8088C143.368 22.8021 143.024 22.4731 142.997 22.0635C142.957 21.3652 142.917 20.6669 142.923 19.9351L142.943 19.3778C142.964 19.1898 142.977 18.9951 142.997 18.8071L143.045 18.5116C143.065 18.4109 143.071 18.3169 143.098 18.2162C143.152 18.0148 143.193 17.8201 143.267 17.6254L143.375 17.3299L143.503 17.0479C143.583 16.8532 143.698 16.6854 143.799 16.5041C143.846 16.4101 143.907 16.3362 143.961 16.2556L144.129 16.0072C144.244 15.8528 144.365 15.7051 144.479 15.5574C144.958 14.9799 145.45 14.4764 145.935 13.9728L146.116 13.7848C146.177 13.7244 146.244 13.6572 146.285 13.6102L146.42 13.4558C146.44 13.4289 146.467 13.4021 146.487 13.3752L146.548 13.2879L146.676 13.1201C146.716 13.0664 146.75 12.9992 146.79 12.9455L146.905 12.7709L147.006 12.5829C147.268 12.0861 147.45 11.5355 147.565 10.9648C147.774 9.83007 147.686 8.61478 147.309 7.57407C147.12 7.05707 146.851 6.58707 146.534 6.21778C146.5 6.17078 146.453 6.12378 146.413 6.0835L146.292 5.95593L146.157 5.8485L146.089 5.79478C146.069 5.77464 146.042 5.76121 146.022 5.74778C145.975 5.71421 145.928 5.68735 145.887 5.65378C145.84 5.62021 145.793 5.60007 145.746 5.57321C145.652 5.51278 145.551 5.47921 145.456 5.43893C145.409 5.41207 145.355 5.40535 145.308 5.39193C145.254 5.3785 145.207 5.35835 145.16 5.34493C145.106 5.33821 145.052 5.3315 145.005 5.31807L144.924 5.30464C144.897 5.29793 144.87 5.29793 144.843 5.29793C144.735 5.29121 144.628 5.27778 144.513 5.2845L144.345 5.29121C144.284 5.29793 144.23 5.30464 144.17 5.31135L143.994 5.3315L143.779 5.37178L143.563 5.41207C143.53 5.41878 143.489 5.4255 143.455 5.43221L143.354 5.45907C143.22 5.49935 143.071 5.52621 142.943 5.5665L142.553 5.70078C142.048 5.88878 141.616 6.14393 141.3 6.42593C140.976 6.71464 140.774 7.03693 140.64 7.40621C140.512 7.78221 140.458 8.22535 140.491 8.70878C140.505 8.9505 140.545 9.19893 140.599 9.44735C140.626 9.56821 140.66 9.69578 140.693 9.80993C140.714 9.87036 140.727 9.92407 140.747 9.9845C140.754 10.0114 140.768 10.0382 140.774 10.0584L140.788 10.0919L140.795 10.0986C140.795 10.0986 140.795 10.1054 140.795 10.0986L140.788 10.0852C141.158 11.0789 140.653 12.1935 139.656 12.5628C138.619 12.9388 137.507 12.4285 137.137 11.4348Z" fill="#D8DEE8"/>
<path d="M179.793 31.8127C176.108 30.49 146.298 21.7144 143.914 21.0094V20.9624C143.914 20.9624 143.887 20.9691 143.839 20.9825C143.792 20.9691 143.765 20.9624 143.765 20.9624V21.0094C141.381 21.7144 111.571 30.49 107.886 31.8127C104.046 33.1891 106.869 37.963 106.869 37.963C106.869 37.963 106.997 37.869 107.246 37.6944V37.963C131.66 35.9218 156.181 35.9084 180.817 37.963C180.81 37.9563 183.632 33.1891 179.793 31.8127ZM111.706 34.8878C118.294 31.0607 130.757 25.0245 143.833 25.0044C156.915 25.0245 169.378 31.0674 175.959 34.8878H111.706Z" fill="#D8DEE8"/>
<path d="M118.726 25.7361L127.059 23.9165C127.059 23.9165 135.304 31.5036 144.196 30.7382C153.089 29.9728 162.358 24.1582 164.063 24.4402C164.945 24.5879 166.077 24.3462 166.946 24.9505C168.542 26.0651 168.327 28.7575 168.266 29.7848C167.566 41.9108 170.725 44.1198 167.727 52.9491C165.343 59.9856 161.193 64.9206 158.013 67.9488C163.005 71.3529 169.041 76.5297 173.965 84.1504C189.594 108.342 180.574 136.287 178.984 140.967C173.817 139.872 165.976 138.677 156.497 139.167C143.941 139.819 139.009 142.887 129.814 143.075C122.666 143.216 112.393 141.631 99.7014 133.353C99.9372 123.087 102.026 98.9419 119.763 79.2288C123.98 74.5422 128.406 70.8561 132.603 67.9488C124.627 62.2551 121.946 56.3599 120.895 52.9491C120.49 51.6398 120.046 49.8068 119.473 42.0451C118.975 35.2636 118.793 29.6505 118.726 25.7361Z" fill="#D8DEE8"/>
<path opacity="0.3" d="M173.972 84.1635C169.048 76.5428 163.012 71.3661 158.02 67.9619C161.193 64.9338 165.349 59.9988 167.734 52.9622C168.839 49.7058 169.108 47.3423 169.034 45.0595C164.474 49.1955 158.835 52.0088 152.685 53.0226C151.283 53.2509 137.548 55.2786 126.87 45.7981C123.407 42.7296 120.767 38.8891 119.015 34.5986C119.123 36.8815 119.271 39.3792 119.473 42.0582C120.046 49.8266 120.49 51.6529 120.895 52.9622C121.952 56.3663 124.633 62.2682 132.603 67.9619C129.437 70.1575 126.136 72.7962 122.895 75.9721C128.325 76.8248 131.997 78.8122 134.57 81.0078C145.032 89.9244 142.822 106.824 152.233 109.443C158.775 111.262 162.971 103.977 168.536 105.381C173.406 106.603 178.129 114.183 179.772 138.522C182.319 129.995 187.829 105.602 173.972 84.1635Z" fill="#D8DEE8"/>
<path opacity="0.5" d="M130.333 65.7397L130.434 69.023C130.434 69.023 150.819 72.8165 159.893 69.4997L159.846 66.5857C159.846 66.579 133.748 67.6667 130.333 65.7397Z" fill="#D8DEE8"/>
<path d="M121.198 11.4348L121.171 11.3609L121.157 11.3072L121.131 11.2132C121.11 11.1528 121.097 11.0991 121.083 11.0454C121.056 10.9379 121.029 10.8238 121.003 10.7164C120.955 10.5015 120.915 10.2866 120.888 10.0718C120.827 9.64207 120.794 9.20564 120.8 8.75578C120.807 7.86278 120.969 6.92278 121.366 6.02307C121.568 5.57993 121.824 5.1435 122.134 4.76078C122.444 4.37807 122.794 4.02893 123.172 3.74693C123.926 3.1695 124.762 2.80021 125.563 2.56521C125.765 2.5115 125.967 2.45778 126.163 2.41078C126.365 2.36378 126.56 2.33021 126.756 2.29664L126.904 2.26978C126.951 2.26307 127.005 2.25635 127.052 2.24964L127.348 2.21607L127.645 2.1825C127.753 2.17578 127.874 2.16907 127.982 2.16235C128.096 2.15564 128.211 2.14893 128.325 2.14893L128.675 2.16235C128.905 2.16907 129.14 2.20935 129.376 2.24293C129.437 2.25635 129.491 2.25635 129.551 2.2765L129.726 2.3235L130.07 2.4175C130.184 2.45778 130.299 2.49807 130.407 2.54507C130.521 2.59207 130.629 2.62564 130.737 2.68607C131.606 3.10235 132.34 3.7335 132.859 4.45193C133.384 5.17035 133.741 5.95593 133.97 6.74821C134.193 7.5405 134.3 8.34621 134.307 9.14521C134.314 9.94421 134.213 10.7365 134.011 11.5154C133.809 12.2875 133.492 13.0395 133.068 13.7311L132.906 13.9862L132.724 14.2346C132.664 14.3152 132.61 14.4025 132.536 14.4764L132.333 14.7114L132.232 14.8255C132.199 14.8658 132.158 14.8994 132.125 14.9329L131.902 15.1478C131.821 15.2284 131.768 15.2754 131.7 15.3358L131.512 15.5104C131.006 15.9669 130.501 16.4235 130.07 16.8734L129.76 17.2158L129.625 17.3904C129.585 17.4508 129.531 17.5045 129.491 17.5649C129.416 17.6791 129.329 17.7932 129.268 17.9141L129.167 18.0886L129.086 18.2766C128.871 18.7735 128.77 19.3711 128.716 20.0156C128.662 20.6602 128.655 21.3384 128.649 22.0165V22.0232C128.642 22.4596 128.285 22.8155 127.847 22.8088C127.429 22.8021 127.086 22.4731 127.059 22.0635C127.018 21.3652 126.978 20.6669 126.985 19.9351L127.005 19.3778C127.025 19.1898 127.038 18.9951 127.059 18.8071L127.106 18.5116C127.126 18.4109 127.133 18.3169 127.16 18.2162C127.214 18.0148 127.254 17.8201 127.328 17.6254L127.436 17.3299L127.564 17.0479C127.645 16.8532 127.759 16.6854 127.86 16.5041C127.907 16.4101 127.968 16.3362 128.022 16.2556L128.19 16.0072C128.305 15.8528 128.426 15.7051 128.541 15.5574C129.019 14.9799 129.511 14.4764 129.996 13.9728L130.178 13.7848C130.238 13.7244 130.306 13.6572 130.346 13.6102L130.481 13.4558C130.501 13.4289 130.528 13.4021 130.548 13.3752L130.609 13.2879L130.737 13.1201C130.777 13.0664 130.811 12.9992 130.851 12.9455L130.966 12.7709L131.067 12.5829C131.33 12.0861 131.512 11.5355 131.626 10.9648C131.835 9.83007 131.747 8.61478 131.37 7.57407C131.181 7.05707 130.912 6.58707 130.595 6.21778C130.562 6.17078 130.515 6.12378 130.474 6.0835L130.353 5.95593L130.218 5.8485L130.151 5.79478C130.131 5.77464 130.104 5.76121 130.083 5.74778C130.036 5.71421 129.989 5.68735 129.949 5.65378C129.902 5.62021 129.854 5.60007 129.807 5.57321C129.713 5.51278 129.612 5.47921 129.518 5.43893C129.47 5.41207 129.416 5.40535 129.369 5.39193C129.315 5.3785 129.268 5.35835 129.221 5.34493C129.167 5.33821 129.113 5.3315 129.066 5.31807L128.985 5.30464C128.958 5.29793 128.931 5.29793 128.905 5.29793C128.797 5.29121 128.689 5.27778 128.574 5.2845L128.406 5.29121C128.345 5.29793 128.291 5.30464 128.231 5.31135L128.056 5.3315L127.84 5.37178L127.625 5.41207C127.591 5.41878 127.55 5.4255 127.517 5.43221L127.416 5.45907C127.281 5.49935 127.133 5.52621 127.005 5.5665L126.614 5.70078C126.109 5.88878 125.678 6.14393 125.361 6.42593C125.038 6.71464 124.836 7.03693 124.701 7.40621C124.573 7.78221 124.519 8.22535 124.553 8.70878C124.566 8.9505 124.607 9.19893 124.66 9.44735C124.687 9.56821 124.721 9.69578 124.755 9.80993C124.775 9.87036 124.788 9.92407 124.809 9.9845C124.815 10.0114 124.829 10.0382 124.836 10.0584L124.849 10.0919L124.856 10.0986C124.856 10.0986 124.856 10.1054 124.856 10.0986L124.849 10.0852C125.22 11.0789 124.714 12.1935 123.717 12.5628C122.68 12.9388 121.568 12.4285 121.198 11.4348Z" fill="url(#paint0_linear_1897_236)"/>
<path d="M163.854 31.8127C160.169 30.49 130.36 21.7144 127.975 21.0094V20.9624C127.975 20.9624 127.948 20.9691 127.901 20.9825C127.854 20.9691 127.827 20.9624 127.827 20.9624V21.0094C125.442 21.7144 95.6325 30.49 91.9476 31.8127C88.1078 33.1891 90.9304 37.963 90.9304 37.963C90.9304 37.963 91.0584 37.869 91.3076 37.6944V37.963C115.721 35.9218 140.242 35.9084 164.878 37.963C164.871 37.9563 167.694 33.1891 163.854 31.8127ZM95.7673 34.8878C102.356 31.0607 114.818 25.0245 127.894 25.0044C140.976 25.0245 153.439 31.0674 160.021 34.8878H95.7673Z" fill="url(#paint1_linear_1897_236)"/>
<path d="M102.787 25.7361L111.12 23.9165C111.12 23.9165 119.366 31.5036 128.258 30.7382C137.15 29.9728 146.42 24.1582 148.124 24.4402C149.006 24.5879 150.138 24.3462 151.007 24.9505C152.604 26.0651 152.388 28.7575 152.328 29.7848C151.627 41.9108 154.786 44.1198 151.789 52.9491C149.404 59.9856 145.254 64.9206 142.075 67.9488C147.066 71.3529 153.102 76.5297 158.027 84.1504C173.656 108.342 164.635 136.287 163.045 140.967C157.879 139.872 150.037 138.677 140.559 139.167C128.002 139.819 123.071 142.887 113.875 143.075C106.728 143.216 96.4544 141.631 83.7627 133.353C83.9985 123.087 86.0868 98.9419 103.824 79.2288C108.041 74.5422 112.467 70.8561 116.664 67.9488C108.688 62.2551 106.007 56.3599 104.956 52.9491C104.552 51.6398 104.107 49.8068 103.535 42.0451C103.036 35.2636 102.854 29.6505 102.787 25.7361Z" fill="url(#paint2_linear_1897_236)"/>
<path opacity="0.3" d="M158.033 84.1635C153.109 76.5428 147.073 71.3661 142.081 67.9619C145.254 64.9338 149.411 59.9988 151.795 52.9622C152.9 49.7058 153.17 47.3423 153.096 45.0595C148.535 49.1955 142.896 52.0088 136.746 53.0226C135.345 53.2509 121.609 55.2786 110.931 45.7981C107.469 42.7296 104.828 38.8891 103.076 34.5986C103.184 36.8815 103.332 39.3792 103.535 42.0582C104.107 49.8266 104.552 51.6529 104.956 52.9622C106.014 56.3663 108.695 62.2682 116.664 67.9619C113.498 70.1575 110.197 72.7962 106.957 75.9721C112.386 76.8248 116.058 78.8122 118.631 81.0078C129.093 89.9244 126.883 106.824 136.294 109.443C142.836 111.262 147.033 103.977 152.597 105.381C157.468 106.603 162.19 114.183 163.834 138.522C166.38 129.995 171.891 105.602 158.033 84.1635Z" fill="url(#paint3_linear_1897_236)"/>
<path d="M114.394 65.7397L114.495 69.023C114.495 69.023 134.88 72.8165 143.954 69.4997L143.907 66.5857C143.907 66.579 117.809 67.6667 114.394 65.7397Z" fill="url(#paint4_linear_1897_236)"/>
<path d="M10.664 48.4168L37.1859 39.8896V170.657L10.2666 159.37C8.45441 158.612 7.27551 156.846 7.27551 154.885V53.0429C7.28225 50.9347 8.64978 49.0614 10.664 48.4168Z" fill="url(#paint5_linear_1897_236)"/>
<path d="M126.789 42.9512L38.6883 39.8962C34.9562 39.7686 31.9113 42.6155 31.9113 46.2546V164.48C31.9113 168.119 34.9495 170.878 38.6883 170.643L126.789 165.037C130.023 164.829 132.637 161.935 132.637 158.564V49.2559C132.637 45.8854 130.03 43.0654 126.789 42.9512Z" fill="url(#paint6_linear_1897_236)"/>
<path d="M38.6883 169.428C35.6501 169.616 33.171 167.367 33.171 164.406V46.2881C33.171 43.3271 35.6501 41.004 38.6883 41.1047L126.789 44.0791C129.423 44.1664 131.559 46.4694 131.559 49.2156V158.618C131.559 161.358 129.423 163.728 126.789 163.889L38.6883 169.428Z" fill="url(#paint7_linear_1897_236)"/>
<path d="M125.59 46.315L40.0558 43.5823C38.4727 43.5286 37.186 44.7439 37.186 46.2881V58.2127C37.186 59.757 38.4727 61.0327 40.0558 61.0663L125.59 62.671C126.971 62.6979 128.089 61.5497 128.089 60.1129V49.0007C128.096 47.5639 126.978 46.362 125.59 46.315Z" fill="url(#paint8_linear_1897_236)"/>
<path opacity="0.5" d="M105.421 51.559C105.421 52.8952 104.363 53.956 103.05 53.9224C101.736 53.8889 100.672 52.7743 100.672 51.4314C100.672 50.0886 101.736 49.0277 103.05 49.068C104.363 49.1016 105.421 50.2162 105.421 51.559Z" fill="white"/>
<path opacity="0.5" d="M112.144 51.7404C112.144 53.0698 111.093 54.124 109.8 54.0904C108.5 54.0568 107.449 52.949 107.449 51.6128C107.449 50.2767 108.506 49.2226 109.8 49.2628C111.093 49.3031 112.144 50.411 112.144 51.7404Z" fill="white"/>
<path opacity="0.5" d="M121.75 53.5329C121.75 55.7017 120.053 57.4205 117.958 57.3735C115.856 57.3265 114.145 55.5204 114.145 53.3382C114.145 51.1561 115.856 49.4372 117.958 49.5043C120.053 49.5648 121.75 51.3709 121.75 53.5329Z" fill="white"/>
<path d="M95.727 48.8528L83.6011 48.497C82.4424 48.4634 81.506 49.3833 81.506 50.5448V56.5407C81.506 57.709 82.4424 58.6692 83.6011 58.696L95.727 58.9512C96.8587 58.978 97.7749 58.0582 97.7749 56.91V50.988C97.7749 49.8466 96.8587 48.8864 95.727 48.8528Z" fill="url(#paint9_linear_1897_236)"/>
<path opacity="0.5" d="M76.9251 50.9344L68.9288 50.7196V48.0674L76.9251 48.3024V50.9344Z" fill="white"/>
<path opacity="0.5" d="M76.9251 54.7482L68.9288 54.5535V51.9014L76.9251 52.1095V54.7482Z" fill="white"/>
<path opacity="0.5" d="M76.9251 58.5554L68.9288 58.3875V55.7354L76.9251 55.9234V58.5554Z" fill="white"/>
<path d="M128.096 153.193L37.186 158.121V155.926L128.096 151.152V153.193Z" fill="url(#paint10_linear_1897_236)"/>
<path opacity="0.3" d="M103.885 141.631C96.6296 126.014 84.5172 127.068 76.7365 110.779C68.6593 93.8724 77.7133 84.6402 71.2394 65.7261C67.7903 55.6479 61.5051 47.3356 53.9736 40.4266L38.6883 39.8962C34.9562 39.7686 31.9113 42.6155 31.9113 46.2546V164.48C31.9113 168.119 34.9495 170.878 38.6883 170.643L107.496 166.266C108.243 158.638 107.738 149.916 103.885 141.631Z" fill="white"/>
<path d="M118.665 106.945C118.665 125.785 103.743 141.718 84.8338 142.564C65.3516 143.43 49.1165 128.034 49.1165 108.153C49.1165 88.2723 65.3516 72.3124 84.8338 72.5071C103.737 72.6817 118.665 88.1044 118.665 106.945Z" fill="#BFC8D6"/>
<path d="M119.696 106.945C119.696 125.785 104.774 141.718 85.8644 142.564C66.3823 143.43 50.1471 128.034 50.1471 108.153C50.1471 88.2723 66.3823 72.3124 85.8644 72.5071C104.774 72.6817 119.696 88.1044 119.696 106.945Z" fill="#D8DEE8"/>
<path d="M113.202 107.052C113.202 122.274 101.103 135.091 85.8578 135.689C70.2424 136.3 57.3014 123.919 57.3014 108.019C57.3014 92.1198 70.2424 79.2888 85.8578 79.3626C101.109 79.4365 113.202 91.8311 113.202 107.052Z" fill="#BFC8D6"/>
<path d="M111.47 107.086C111.47 121.347 100.133 133.332 85.8578 133.876C71.2596 134.426 59.1809 122.844 59.1809 107.992C59.1809 93.14 71.2596 81.1416 85.8578 81.1886C100.133 81.2289 111.47 92.8245 111.47 107.086Z" fill="url(#paint11_linear_1897_236)"/>
<path d="M117.621 106.253C117.621 113.646 117.048 119.655 111.41 119.809C105.724 119.964 101.076 114.022 101.076 106.529C101.076 99.0354 105.724 92.9321 111.41 92.8986C117.048 92.865 117.621 98.8542 117.621 106.253Z" fill="#D8DEE8"/>
<path d="M102.477 106.502C102.477 112.739 106.344 117.694 111.08 117.574C111.12 117.574 111.16 117.567 111.208 117.567C112.494 114.304 113.208 110.752 113.208 107.052C113.208 102.789 112.265 98.7601 110.581 95.168C106.074 95.544 102.477 100.486 102.477 106.502Z" fill="url(#paint12_linear_1897_236)"/>
<path opacity="0.3" d="M73.2604 87.9771C80.9738 85.1101 93.5914 89.1118 97.7142 98.2164C100.988 105.441 99.358 116.828 92.0353 120.521C85.0427 124.046 74.345 119.823 73.6175 114.452C72.8832 109.026 82.3548 102.769 83.6819 103.823C85.0494 104.911 77.7268 113.841 79.64 115.734C81.8563 117.93 97.1214 111.323 96.6903 103.118C96.3669 96.9138 87.2186 91.7304 79.997 93.0934C70.3165 94.9197 63.9437 108.503 67.9048 117.614C72.3712 127.907 88.8152 129.787 97.0406 123.173C107.725 114.572 100.146 94.9264 99.4388 93.1471C97.5728 88.474 94.9118 84.808 92.2845 82.0081C90.2434 81.4777 88.0944 81.189 85.8781 81.1823C71.2799 81.1353 59.2012 93.1337 59.2012 107.986C59.2012 109.59 59.3426 111.162 59.6188 112.686C61.3973 99.5526 66.2611 90.5756 73.2604 87.9771Z" fill="white"/>
<path opacity="0.3" d="M78.3533 110.094C71.6841 96.1348 76.7163 87.3794 74.9985 74.1187C60.6833 78.6575 50.1405 92.1532 50.1405 108.147C50.1405 128.034 66.3757 143.43 85.8579 142.557C92.2981 142.269 98.2667 140.234 103.333 136.951C96.0167 125.369 85.3998 124.852 78.3533 110.094Z" fill="white"/>
<path d="M52.8687 181.406C52.6734 181.406 52.5184 181.252 52.5184 181.057V124.825C52.5184 124.63 52.6734 124.476 52.8687 124.476C53.0641 124.476 53.219 124.63 53.219 124.825V181.057C53.219 181.252 53.0641 181.406 52.8687 181.406Z" fill="#A2A7AE"/>
<path d="M28.2196 180.252C28.0242 180.252 27.8693 180.097 27.8693 179.902V124.825C27.8693 124.63 28.0242 124.476 28.2196 124.476C28.4149 124.476 28.5699 124.63 28.5699 124.825V179.902C28.5699 180.097 28.4149 180.252 28.2196 180.252Z" fill="#A2A7AE"/>
<path d="M30.7121 188C30.6852 188 30.6582 188 30.6313 187.993C30.4427 187.946 30.3282 187.758 30.3686 187.57L45.1688 125.255C45.216 125.067 45.4046 124.953 45.5933 124.993C45.7819 125.04 45.8964 125.228 45.856 125.416L31.049 187.731C31.0153 187.892 30.8671 188 30.7121 188Z" fill="#A2A7AE"/>
<path d="M7.8145 184.939C7.78755 184.939 7.75387 184.932 7.72692 184.925C7.5383 184.878 7.42378 184.683 7.47093 184.502L22.635 125.249C22.6821 125.061 22.8775 124.946 23.0594 124.993C23.248 125.04 23.3625 125.235 23.3154 125.416L8.15133 184.677C8.11091 184.831 7.96944 184.939 7.8145 184.939Z" fill="#A2A7AE"/>
<path d="M22.1095 125.383L45.7145 125.886L53.2797 125.383V124.275L35.6904 123.919L22.1095 124.275V125.383Z" fill="#D8DEE8"/>
<path d="M22.1095 125.382L45.7145 125.886V124.778L22.1095 124.274V125.382Z" fill="#A2A7AE"/>
<path d="M42.3126 139.14C42.3059 139.14 42.2992 139.14 42.2924 139.14L20.0549 137.905C19.8596 137.891 19.7114 137.73 19.7248 137.535C19.7383 137.341 19.9 137.193 20.0954 137.206L42.3328 138.442C42.5282 138.455 42.6764 138.616 42.6629 138.811C42.6562 138.992 42.5012 139.14 42.3126 139.14Z" fill="#A2A7AE"/>
<path d="M39.3686 151.528C39.3618 151.528 39.3551 151.528 39.3416 151.528L16.7269 150.024C16.5316 150.011 16.3901 149.843 16.3968 149.648C16.4103 149.453 16.5787 149.312 16.7673 149.319L39.382 150.823C39.5774 150.837 39.7189 151.004 39.7121 151.199C39.7121 151.387 39.5572 151.528 39.3686 151.528Z" fill="#A2A7AE"/>
<path d="M36.445 163.842C36.4382 163.842 36.4248 163.842 36.418 163.842L13.6349 162.11C13.4396 162.096 13.2981 161.929 13.3116 161.734C13.325 161.539 13.4934 161.398 13.6888 161.412L36.4719 163.144C36.6673 163.157 36.8088 163.325 36.7953 163.52C36.7818 163.708 36.6269 163.842 36.445 163.842Z" fill="#A2A7AE"/>
<path d="M33.5347 176.089C33.5212 176.089 33.5145 176.089 33.501 176.089L10.5832 174.055C10.3878 174.035 10.2464 173.867 10.2666 173.672C10.2868 173.477 10.4552 173.336 10.6506 173.356L33.5684 175.391C33.7638 175.411 33.9052 175.579 33.885 175.774C33.8716 175.955 33.7166 176.089 33.5347 176.089Z" fill="#A2A7AE"/>
<path d="M62.9331 43.0859C62.9331 43.0859 62.5626 50.2165 61.094 50.2098C59.6255 50.2098 55.3814 46.0201 52.094 45.7918C48.8132 45.5635 50.7264 56.9912 50.7264 56.9912C50.7264 56.9912 57.0656 61.9329 62.9264 60.5767C68.7939 59.2204 67.3725 46.8459 64.5095 43.4821L62.9331 43.0859Z" fill="white"/>
<path d="M47.1359 42.8106C47.3919 42.3742 48.0925 41.179 47.8096 39.7825C47.5199 38.3523 46.2669 37.043 44.7714 36.7543C43.4712 36.4992 42.4135 37.1102 41.2818 37.7615C38.4861 39.3729 38.0954 41.367 37.2331 41.2395C35.5759 40.991 37.2062 33.7933 33.7436 31.1479C31.3521 29.3216 29.0751 31.5977 24.0698 30.9263C16.5989 29.9192 14.9081 23.9233 11.1288 24.87C7.08015 25.8839 4.23731 33.9612 6.17745 40.3465C7.82118 45.7582 12.4492 48.464 14.167 49.3167C17.5488 51.0087 20.4388 50.9416 25.1948 50.7737C36.3304 50.3776 44.9061 46.6109 47.1359 42.8106Z" fill="url(#paint13_linear_1897_236)"/>
<path d="M43.9428 122.885C43.9428 122.885 43.8081 123.966 43.8957 124.329C43.99 124.691 47.136 124.953 48.2071 124.826C49.2782 124.698 47.5671 123.61 46.8867 123.409C46.2131 123.201 43.9428 122.885 43.9428 122.885Z" fill="url(#paint14_linear_1897_236)"/>
<path d="M45.5325 121.079L45.2024 123.248C45.2024 123.248 44.3536 123.631 43.9494 123.255L43.9022 120.985L45.5325 121.079Z" fill="url(#paint15_linear_1897_236)"/>
<path d="M27.7682 120.985C27.7682 120.985 28.4351 121.482 28.2599 122.073C28.0848 122.664 26.5219 125.041 25.4104 125.712C24.2988 126.383 24.6491 124.98 24.9725 124.107C25.2958 123.234 26.1244 121.307 26.4478 120.985C26.7644 120.663 27.7682 120.985 27.7682 120.985Z" fill="url(#paint16_linear_1897_236)"/>
<path d="M28.9741 118.602C28.6507 119.501 28.3408 120.24 28.0983 120.784C27.5594 121.986 27.2697 122.442 26.9329 122.832C26.6432 123.174 25.9561 123.899 25.7674 123.778C25.5788 123.657 26.0841 122.771 27.0541 120.179C27.1956 119.803 27.6402 118.602 27.6402 118.602H28.9741Z" fill="url(#paint17_linear_1897_236)"/>
<path d="M52.1276 81.0887C52.3567 83.3447 52.579 86.8495 52.2489 91.0997C51.8178 96.639 50.7062 100.144 49.3118 106.052C48.4629 109.665 47.311 114.976 46.2736 121.616C46.031 121.75 45.3237 122.113 44.4143 121.979C43.9023 121.905 43.5183 121.703 43.296 121.556C40.5744 113.257 41.3761 108.114 42.6897 104.911C43.2488 103.548 43.9292 102.467 44.293 100.365C44.7713 97.5857 44.1785 96.0347 43.3297 89.6024C42.7234 85.0165 42.8312 84.3048 43.2354 83.62C44.8454 80.8671 49.7564 80.9208 52.1276 81.0887Z" fill="url(#paint18_linear_1897_236)"/>
<path d="M42.7503 82.0488C41.0797 90.6431 39.4427 95.1551 38.2032 97.7065C37.9 98.3377 36.876 100.365 35.9127 103.279C35.0572 105.858 34.7001 107.751 34.5182 108.584C33.9456 111.216 32.5175 115.063 28.6911 120.105C28.6439 120.132 27.9905 120.502 27.364 120.173C27.0474 120.005 26.8924 119.743 26.8251 119.615C27.3236 114.794 27.9029 110.739 28.4014 107.617C28.5092 106.959 28.9673 104.092 29.6881 100.298C29.9711 98.8144 30.382 96.639 30.8805 94.4098C31.5003 91.6301 32.4434 87.8433 33.9052 83.3111C36.8626 82.8948 39.8065 82.4718 42.7503 82.0488Z" fill="url(#paint19_linear_1897_236)"/>
<path d="M56.9308 49.122C56.5805 46.9063 53.0371 45.7649 51.2047 45.1673C47.2841 43.8983 43.8754 44.6234 42.3731 44.939C36.8558 46.1073 33.4135 49.404 32.12 50.7939C33.1777 51.4787 36.1013 53.5803 37.5497 57.5618C38.0011 58.7973 39.3282 63.034 37.4284 67.0021C36.3304 69.285 34.3903 71.0038 32.9149 72.3064C30.7053 74.2603 29.5601 74.5624 28.8191 76.3148C28.0107 78.2217 28.8258 79.1483 27.8221 80.4576C26.7442 81.8608 25.4845 81.2095 23.6589 82.6263C21.7929 84.0765 22.453 85.2717 20.7554 86.8764C18.2831 89.2063 15.0091 88.4475 14.8542 89.5017C14.7262 90.4014 17.0503 91.6301 19.0309 92.127C22.9448 93.1073 26.367 91.4623 27.3775 90.952C30.1934 89.542 29.7016 88.6288 31.8506 87.5613C35.4412 85.7618 37.8933 87.7627 46.0782 87.9708C50.5109 88.085 52.7474 88.1051 53.9735 86.6145C55.0918 85.2515 54.5057 83.7543 53.832 77.3018C53.5154 74.2334 53.3941 71.1448 53.1584 68.0697C52.5992 60.7377 52.4914 59.039 52.8283 57.9647C52.8687 57.8438 52.9361 57.6961 53.064 57.394C55.5229 51.5459 57.1801 50.7401 56.9308 49.122Z" fill="white"/>
<g opacity="0.3">
<path opacity="0.3" d="M20.7554 86.8763C22.453 85.2716 21.7929 84.0765 23.6589 82.6262C25.4845 81.2095 26.7442 81.8607 27.8221 80.4575C28.8258 79.1549 28.0107 78.2216 28.8191 76.3147C29.5601 74.5623 30.7054 74.2602 32.915 72.3063C34.3903 71.0037 36.3304 69.2849 37.4285 67.002C39.3349 63.0339 38.0011 58.8039 37.5497 57.5617C36.1014 53.5802 33.1777 51.4853 32.12 50.7937C32.2211 50.6863 32.3423 50.5587 32.4703 50.4312C39.4494 51.3913 43.5183 55.4132 44.0236 56.6016C45.189 59.3544 43.3432 60.3616 43.296 68.3046C43.2758 72.0982 43.6867 73.5954 42.4472 75.18C41.0325 76.9929 39.409 76.4289 37.3678 78.799C35.7982 80.6186 36.0475 81.7735 34.5856 82.5389C33.0093 83.3647 32.0055 82.4046 30.2271 82.7806C27.2562 83.4117 26.623 86.8226 24.6626 88.6892C23.1806 90.0992 20.4321 91.0862 15.0226 90.0253C14.8946 89.844 14.834 89.6695 14.8609 89.5016C15.0091 88.4475 18.2898 89.2062 20.7554 86.8763Z" fill="url(#paint20_linear_1897_236)"/>
</g>
<path d="M44.6365 40.6421C44.6365 40.6421 44.2862 43.4487 43.2488 44.0932C42.2114 44.7378 40.534 45.5771 40.3453 45.8054C40.1635 46.0336 46.7788 46.7454 50.0595 45.0936C48.9816 44.8721 48.6852 44.7848 48.6852 44.7848C48.3888 44.7042 47.8432 44.5498 47.2975 44.2342C46.927 44.0194 46.3207 43.6098 45.7683 42.8242L45.7818 41.2732L44.6365 40.6421Z" fill="url(#paint21_linear_1897_236)"/>
<path d="M44.475 41.6358C44.475 41.6358 45.1554 42.5624 46.213 42.173C47.1629 41.8305 46.597 39.3798 45.8425 39.0978C45.5932 39.0038 45.1284 39.0441 44.8185 39.2388C44.603 39.3731 44.0236 40.0915 44.3537 40.8973C44.1112 40.8301 43.9023 40.8905 43.8485 41.0114C43.7811 41.1591 43.9832 41.3673 44.0303 41.4143C44.192 41.5754 44.3874 41.6224 44.475 41.6358Z" fill="url(#paint22_linear_1897_236)"/>
<path d="M17.8789 53.0631C21.328 56.2725 23.6454 56.7089 25.1814 56.3933C26.9531 56.0308 27.3842 54.7349 30.4831 51.9418C33.3461 49.3501 36.1957 46.7785 37.9068 47.3559C39.8469 48.0139 40.3858 52.6938 38.9172 56.3195C37.0377 60.959 30.8401 66.3573 24.2719 64.5579C19.9134 63.3628 16.7067 59.3678 16.2487 54.6073C16.7943 54.0903 17.34 53.5733 17.8789 53.0631Z" fill="white"/>
<path d="M62.9331 43.0859C62.9331 43.0859 62.8186 42.2667 63.27 41.9646C63.7213 41.6624 66.8201 41.8773 67.7228 40.6419C68.6255 39.4064 68.4032 42.1526 67.7228 42.213C67.0424 42.2734 64.5162 43.482 64.5162 43.482L62.9331 43.0859Z" fill="url(#paint23_linear_1897_236)"/>
<path d="M17.4275 53.4727C17.4275 53.4727 17.0368 52.7744 16.9896 52.4991C16.9425 52.2171 17.2254 51.5255 17.0839 50.9884C16.9425 50.4513 16.7808 51.0824 16.7808 51.2435C16.7808 51.4047 16.5585 52.0358 16.3901 52.009C16.2217 51.9888 14.167 51.3375 13.7695 51.022C13.3721 50.7064 13.7224 52.056 14.6116 52.3313C15.5008 52.6133 16.3901 53.466 16.3901 53.466L16.7538 54.1106L17.4275 53.4727Z" fill="url(#paint24_linear_1897_236)"/>
<path d="M98.0375 92.5432C100.032 90.972 102.046 92.57 106.869 92.476C113.969 92.335 116.556 88.7563 119.352 90.2536C122.471 91.9187 122.148 97.9146 122.087 99.62C121.461 118.017 134.334 147.224 151.829 160.989C152.577 161.579 166.38 172.262 172.133 168.294C174.363 166.756 175.636 162.842 174.518 160.156C173.258 157.108 169.742 157.578 167.815 154.247C165.929 150.998 166.609 145.942 168.563 145.143C171.56 143.921 180.23 151.589 181.611 160.566C183.242 171.181 174.612 183.139 165.019 185.301C156.733 187.168 153.776 180.373 139.488 180.44C131.208 180.473 130.036 182.77 123.603 181.83C117.547 180.943 108.055 176.431 104.154 170.395C94.649 155.684 117.412 132.124 107.61 120.448C105.535 117.977 102.032 116.077 98.9267 110.323C97.9566 108.53 96.1243 104.683 96.1176 99.667C96.1176 97.035 96.1176 94.0606 98.0375 92.5432Z" fill="url(#paint25_linear_1897_236)"/>
<path opacity="0.3" d="M164.184 178.735C158.855 176.821 158.182 173.108 151.742 171.423C140.545 168.489 132.125 178.117 126.533 174.605C118.267 169.415 136.557 143.619 125.26 124.356C118.375 112.619 103.892 109.094 104.889 99.8484C105.259 96.3973 107.603 93.8257 109.355 92.2814C108.594 92.3889 107.772 92.4627 106.876 92.4829C102.079 92.5769 99.4724 91.0124 98.0442 92.55C96.6834 94.0137 97.6535 96.9344 98.2194 98.4586C101.938 108.463 109.261 114.674 112.144 119.783C121.063 135.609 95.2485 154.805 104.161 170.409C108.142 177.385 117.533 180.957 123.61 181.843C130.043 182.783 131.215 180.487 139.494 180.453C153.783 180.393 156.74 187.188 165.026 185.315C168.866 184.448 172.544 182.018 175.481 178.728C170.678 180.084 167.013 179.755 164.184 178.735Z" fill="url(#paint26_linear_1897_236)"/>
<path d="M119.554 92.1064C119.979 101.782 123.03 106.321 126.075 108.63C129.753 111.417 133.741 111.209 134.543 114.015C135.419 117.057 132.017 121.777 128.5 122.126C122.821 122.69 118.571 111.672 118.241 110.799C115.499 103.474 116.981 96.5782 118.119 92.9323C118.598 92.6503 119.076 92.375 119.554 92.1064Z" fill="#D8DEE8"/>
<path d="M135.715 181.568C136.16 182.28 136.092 182.609 136.012 182.756C135.789 183.199 135.102 182.877 133.438 183.246C133.243 183.293 132.872 183.381 132.387 183.32C131.976 183.267 131.478 183.105 131.485 182.991C131.485 182.951 131.559 182.931 131.586 182.917C132.044 182.77 134.88 181.568 134.88 181.568H135.715Z" fill="url(#paint27_linear_1897_236)"/>
<path d="M135.762 179.896L135.675 181.595C135.675 181.595 135.008 182.179 134.752 181.581C134.57 181.152 134.449 179.956 134.449 179.956L135.762 179.896Z" fill="url(#paint28_linear_1897_236)"/>
<path d="M116.893 179.171L117.452 181.152L118.496 181.064L118.395 179.265L116.893 179.171Z" fill="url(#paint29_linear_1897_236)"/>
<path d="M117.688 182.239C118.234 181.688 118.672 181.776 118.793 181.38C118.887 181.064 118.725 180.661 118.443 180.493C118.045 180.252 117.52 180.54 117.398 180.607C116.59 181.051 116.738 181.843 115.984 182.125C115.835 182.179 115.593 182.239 115.33 182.447C115.216 182.534 114.946 182.756 114.993 182.924C115.047 183.119 115.505 183.152 115.943 183.179C116.469 183.213 116.731 183.226 116.994 183.092C117.358 182.89 117.27 182.662 117.688 182.239Z" fill="url(#paint30_linear_1897_236)"/>
<path d="M137.069 139.375C137.285 143.283 137.076 146.654 136.726 149.427C136.349 152.408 136.025 152.945 136.005 154.986C135.951 159.424 137.426 159.941 138.1 164.897C138.848 170.369 137.743 174.861 137.305 176.579C136.921 178.077 136.49 179.299 136.16 180.151C135.688 180.635 134.9 180.527 134.072 180.427C133.357 175.465 132.589 170.798 131.875 165.837C130.286 158.411 128.689 150.991 127.099 143.565C130.427 142.169 133.748 140.772 137.069 139.375Z" fill="url(#paint31_linear_1897_236)"/>
<path opacity="0.3" d="M134.078 180.427C133.364 175.465 132.596 170.798 131.882 165.837C130.292 158.41 128.696 150.991 127.106 143.565C130.427 142.169 133.748 140.772 137.076 139.375C137.089 139.637 137.096 139.886 137.11 140.141C132.663 144.686 131.997 148.044 132.232 150.286C132.515 152.999 134.119 154.221 134.152 158.189C134.179 161.022 133.371 161.593 133.58 164.131C133.856 167.408 135.412 169.127 136.261 170.966C137.076 172.739 137.527 175.31 136.55 179.097C136.416 179.493 136.281 179.843 136.166 180.151C135.695 180.628 134.907 180.521 134.078 180.427Z" fill="url(#paint32_linear_1897_236)"/>
<path d="M127.678 142.524C124.755 146.499 123.03 149.682 122.074 151.656C121.488 152.864 120.942 154.126 120.672 155.825C120.342 157.907 120.592 159.666 120.848 160.807C121.238 162.271 121.548 163.963 121.663 165.85C122.033 171.973 120.12 176.881 118.719 179.674C118.092 179.835 117.459 180.003 116.833 180.164C115.842 176.203 114.697 170.603 114.151 163.795C113.855 160.075 113.633 157.155 113.99 153.509C114.367 149.668 115.519 143.639 119.392 136.689C122.154 138.637 124.916 140.577 127.678 142.524Z" fill="url(#paint33_linear_1897_236)"/>
<path d="M122.788 109.759C118.981 110.739 116.105 111.665 114.96 113.794C113.754 116.036 116.085 117.453 117.075 122.079C118.584 129.149 114.684 132.164 116.469 139.261C117.068 141.651 118.052 143.458 118.719 144.525C120.053 145.438 122.148 146.654 124.916 147.372C128.945 148.413 130.811 147.459 136.099 147.325C144.756 147.103 146.251 149.487 150.01 147.634C153.816 145.761 156.316 141.343 155.332 139.63C154.746 138.603 153.224 139.402 150.852 138.274C147.801 136.824 148.097 134.474 145.571 132.681C141.94 130.116 138.915 133.259 135.803 131.023C132.657 128.76 131.801 122.697 132.744 118.971C133.364 116.533 133.162 113.962 133.566 111.477C133.6 111.269 133.613 110.947 133.458 110.591C132.859 109.235 130.272 109.181 128.318 109.154C125.341 109.121 123.098 109.678 122.788 109.759Z" fill="white"/>
<path opacity="0.3" d="M149.33 144.962C148.07 144.27 148.528 141.967 146.662 140.926C144.931 139.953 143.772 141.51 141.293 140.967C138.113 140.275 138.033 137.287 134.981 136.582C132.792 136.079 132.259 137.489 129.181 137.804C126.109 138.12 121.973 137.186 119.15 134.145C117.951 132.856 117.223 131.432 116.779 130.096C116.179 132.809 115.499 135.447 116.455 139.254C117.055 141.645 118.038 143.451 118.705 144.518C120.039 145.432 122.134 146.647 124.903 147.365C128.931 148.406 130.797 147.453 136.086 147.318C144.742 147.097 146.238 149.48 149.997 147.627C152.429 146.432 154.322 144.196 155.117 142.289C151.93 145.049 150.246 145.465 149.33 144.962Z" fill="url(#paint34_linear_1897_236)"/>
<path d="M122.646 102.151C122.646 102.151 121.137 103.843 120.747 105.193C120.349 106.543 121.919 106.811 121.919 106.811L121.656 107.657C121.427 108.376 121.602 108.745 120.511 109.705L118.779 110.974C118.779 110.974 123.151 110.867 125.691 109.859L125.078 109.651C124.216 109.356 123.684 108.49 123.805 107.583L123.859 107.207C123.852 107.201 125.57 103.118 122.646 102.151Z" fill="url(#paint35_linear_1897_236)"/>
<path d="M102.369 93.6309C105.286 102.87 109.328 106.556 112.871 108.006C117.149 109.752 120.942 108.523 122.451 111.028C124.088 113.74 122.02 119.172 118.712 120.414C113.37 122.422 106.411 112.874 105.865 112.109C101.318 105.737 100.961 98.6934 101.116 94.8797C101.513 94.497 101.985 94.0203 102.369 93.6309Z" fill="white"/>
<path d="M122.801 104.233C123.01 104.266 123.246 104.045 123.367 104.159C123.495 104.273 123.387 104.649 123.192 104.884C123.037 105.079 122.835 105.159 122.72 105.193C122.828 105.448 122.943 105.837 122.922 106.301C122.869 107.328 122.154 107.993 121.824 108.409C120.336 110.262 121.07 113.928 122.35 115.996C123.387 117.681 124.155 117.285 124.708 118.588C125.772 121.119 123.01 122.966 123.131 126.061C123.313 130.768 129.982 133.755 130.259 133.876C130.366 133.923 130.44 133.957 130.555 134.004C133.566 135.253 138.134 137.139 142.101 135.38C145.066 134.064 147.019 131.003 147.538 128.015C147.673 127.229 148.151 124.235 146.325 121.267C146.036 120.797 144.325 118.01 141.28 117.252C139.67 116.849 139.205 117.339 138.06 116.694C136.483 115.808 135.816 114.029 135.399 112.921C134.631 110.887 135.203 110.631 134.557 109.564C133.29 107.476 131.006 108.328 129.571 106.415C128.163 104.528 129.706 102.796 128.312 101.117C126.87 99.3917 123.401 99.0425 122.309 100.426C121.38 101.614 122.161 104.132 122.801 104.233Z" fill="url(#paint36_linear_1897_236)"/>
<path d="M119.554 92.1067C119.554 92.1067 120.322 90.0253 119.554 89.4142C118.786 88.8032 116.408 90.1461 116.408 90.1461C116.408 90.1461 118.342 92.2007 118.126 92.9325C118.126 92.9258 119.352 92.7714 119.554 92.1067Z" fill="url(#paint37_linear_1897_236)"/>
<path d="M102.167 93.839C102.167 93.839 102.275 92.3081 102.369 91.6232C102.47 90.9317 99.0279 90.9787 99.0481 91.3278C99.0683 91.6769 101.123 94.8864 101.123 94.8864L102.167 93.839Z" fill="url(#paint38_linear_1897_236)"/>
<path d="M63.6607 39.0575C67.3663 39.0575 70.3703 36.0634 70.3703 32.37C70.3703 28.6767 67.3663 25.6826 63.6607 25.6826C59.9551 25.6826 56.951 28.6767 56.951 32.37C56.951 36.0634 59.9551 39.0575 63.6607 39.0575Z" fill="url(#paint39_linear_1897_236)"/>
<path opacity="0.5" d="M63.6607 35.7672C66.1832 35.7672 68.2281 33.729 68.2281 31.2149C68.2281 28.7007 66.1832 26.6626 63.6607 26.6626C61.1382 26.6626 59.0933 28.7007 59.0933 31.2149C59.0933 33.729 61.1382 35.7672 63.6607 35.7672Z" fill="white"/>
<path d="M70.788 27.22C72.1497 27.22 73.2535 26.1198 73.2535 24.7626C73.2535 23.4054 72.1497 22.3052 70.788 22.3052C69.4263 22.3052 68.3224 23.4054 68.3224 24.7626C68.3224 26.1198 69.4263 27.22 70.788 27.22Z" fill="url(#paint40_linear_1897_236)"/>
<path opacity="0.5" d="M70.788 26.0117C71.7144 26.0117 72.4654 25.2632 72.4654 24.3398C72.4654 23.4165 71.7144 22.668 70.788 22.668C69.8616 22.668 69.1106 23.4165 69.1106 24.3398C69.1106 25.2632 69.8616 26.0117 70.788 26.0117Z" fill="white"/>
<path d="M62.9197 23.5941C65.4459 23.5941 67.4938 21.553 67.4938 19.0351C67.4938 16.5172 65.4459 14.4761 62.9197 14.4761C60.3935 14.4761 58.3456 16.5172 58.3456 19.0351C58.3456 21.553 60.3935 23.5941 62.9197 23.5941Z" fill="url(#paint41_linear_1897_236)"/>
<path opacity="0.5" d="M62.9198 21.3515C64.6387 21.3515 66.0321 19.9626 66.0321 18.2495C66.0321 16.5363 64.6387 15.1475 62.9198 15.1475C61.2009 15.1475 59.8075 16.5363 59.8075 18.2495C59.8075 19.9626 61.2009 21.3515 62.9198 21.3515Z" fill="white"/>
<path d="M50.1742 29.3149C53.2882 29.3149 55.8127 26.7988 55.8127 23.6951C55.8127 20.5913 53.2882 18.0752 50.1742 18.0752C47.0601 18.0752 44.5356 20.5913 44.5356 23.6951C44.5356 26.7988 47.0601 29.3149 50.1742 29.3149Z" fill="url(#paint42_linear_1897_236)"/>
<path opacity="0.5" d="M50.1742 26.5488C52.2949 26.5488 54.0141 24.8353 54.0141 22.7217C54.0141 20.608 52.2949 18.8945 50.1742 18.8945C48.0535 18.8945 46.3344 20.608 46.3344 22.7217C46.3344 24.8353 48.0535 26.5488 50.1742 26.5488Z" fill="white"/>
<path d="M37.186 22.2382C39.0388 22.2382 40.5408 20.7412 40.5408 18.8945C40.5408 17.0478 39.0388 15.5508 37.186 15.5508C35.3332 15.5508 33.8312 17.0478 33.8312 18.8945C33.8312 20.7412 35.3332 22.2382 37.186 22.2382Z" fill="url(#paint43_linear_1897_236)"/>
<path opacity="0.5" d="M37.186 20.5933C38.4473 20.5933 39.4697 19.5742 39.4697 18.3172C39.4697 17.0601 38.4473 16.041 37.186 16.041C35.9248 16.041 34.9023 17.0601 34.9023 18.3172C34.9023 19.5742 35.9248 20.5933 37.186 20.5933Z" fill="white"/>
</g>
<defs>
<linearGradient id="paint0_linear_1897_236" x1="126.933" y1="28.0458" x2="127.607" y2="7.05759" gradientUnits="userSpaceOnUse">
<stop stop-color="#311944"/>
<stop offset="1" stop-color="#A03976"/>
</linearGradient>
<linearGradient id="paint1_linear_1897_236" x1="127.974" y1="22.5848" x2="127.893" y2="35.588" gradientUnits="userSpaceOnUse">
<stop stop-color="#311944"/>
<stop offset="1" stop-color="#A03976"/>
</linearGradient>
<linearGradient id="paint2_linear_1897_236" x1="160.181" y1="35.5839" x2="88.5608" y2="161.936" gradientUnits="userSpaceOnUse">
<stop stop-color="#FFC444"/>
<stop offset="0.9964" stop-color="#F36F56"/>
</linearGradient>
<linearGradient id="paint3_linear_1897_236" x1="161.967" y1="36.5963" x2="90.3475" y2="162.948" gradientUnits="userSpaceOnUse">
<stop stop-color="#FFC444"/>
<stop offset="0.9964" stop-color="#F36F56"/>
</linearGradient>
<linearGradient id="paint4_linear_1897_236" x1="131.809" y1="41.6314" x2="128.851" y2="71.0079" gradientUnits="userSpaceOnUse">
<stop stop-color="#FFC444"/>
<stop offset="0.9964" stop-color="#F36F56"/>
</linearGradient>
<linearGradient id="paint5_linear_1897_236" x1="7.28108" y1="105.272" x2="37.1872" y2="105.272" gradientUnits="userSpaceOnUse">
<stop stop-color="#AA80F9"/>
<stop offset="0.9964" stop-color="#6165D7"/>
</linearGradient>
<linearGradient id="paint6_linear_1897_236" x1="98.1157" y1="63.63" x2="33.7301" y2="222.36" gradientUnits="userSpaceOnUse">
<stop stop-color="#AA80F9"/>
<stop offset="0.9964" stop-color="#6165D7"/>
</linearGradient>
<linearGradient id="paint7_linear_1897_236" x1="44.2558" y1="84.3516" x2="101.671" y2="118.32" gradientUnits="userSpaceOnUse">
<stop stop-color="#AA80F9"/>
<stop offset="0.9964" stop-color="#6165D7"/>
</linearGradient>
<linearGradient id="paint8_linear_1897_236" x1="87.7452" y1="40.698" x2="68.2502" y2="88.759" gradientUnits="userSpaceOnUse">
<stop stop-color="#AA80F9"/>
<stop offset="0.9964" stop-color="#6165D7"/>
</linearGradient>
<linearGradient id="paint9_linear_1897_236" x1="90.5321" y1="52.3101" x2="81.6764" y2="66.4921" gradientUnits="userSpaceOnUse">
<stop stop-color="#40447E"/>
<stop offset="0.9964" stop-color="#3C3B6B"/>
</linearGradient>
<linearGradient id="paint10_linear_1897_236" x1="37.1873" y1="154.635" x2="128.095" y2="154.635" gradientUnits="userSpaceOnUse">
<stop stop-color="#40447E"/>
<stop offset="0.9964" stop-color="#3C3B6B"/>
</linearGradient>
<linearGradient id="paint11_linear_1897_236" x1="59.1873" y1="107.536" x2="111.474" y2="107.536" gradientUnits="userSpaceOnUse">
<stop stop-color="#40447E"/>
<stop offset="0.9964" stop-color="#3C3B6B"/>
</linearGradient>
<linearGradient id="paint12_linear_1897_236" x1="102.474" y1="106.373" x2="113.204" y2="106.373" gradientUnits="userSpaceOnUse">
<stop stop-color="#BFC8D6"/>
<stop offset="1" stop-color="#D8DEE8"/>
</linearGradient>
<linearGradient id="paint13_linear_1897_236" x1="5.55257" y1="37.8069" x2="47.8759" y2="37.8069" gradientUnits="userSpaceOnUse">
<stop stop-color="#444B8C"/>
<stop offset="0.9964" stop-color="#26264F"/>
</linearGradient>
<linearGradient id="paint14_linear_1897_236" x1="46.6739" y1="115.935" x2="45.5919" y2="135.476" gradientUnits="userSpaceOnUse">
<stop stop-color="#444B8C"/>
<stop offset="0.9964" stop-color="#26264F"/>
</linearGradient>
<linearGradient id="paint15_linear_1897_236" x1="45.5316" y1="122.202" x2="43.9007" y2="122.202" gradientUnits="userSpaceOnUse">
<stop stop-color="#311944"/>
<stop offset="1" stop-color="#A03976"/>
</linearGradient>
<linearGradient id="paint16_linear_1897_236" x1="26.9608" y1="114.844" x2="25.8788" y2="134.384" gradientUnits="userSpaceOnUse">
<stop stop-color="#444B8C"/>
<stop offset="0.9964" stop-color="#26264F"/>
</linearGradient>
<linearGradient id="paint17_linear_1897_236" x1="28.9715" y1="121.199" x2="25.728" y2="121.199" gradientUnits="userSpaceOnUse">
<stop stop-color="#311944"/>
<stop offset="1" stop-color="#A03976"/>
</linearGradient>
<linearGradient id="paint18_linear_1897_236" x1="46.4069" y1="120.244" x2="46.9478" y2="99.257" gradientUnits="userSpaceOnUse">
<stop stop-color="#444B8C"/>
<stop offset="0.9964" stop-color="#26264F"/>
</linearGradient>
<linearGradient id="paint19_linear_1897_236" x1="34.2997" y1="119.932" x2="34.8407" y2="98.945" gradientUnits="userSpaceOnUse">
<stop stop-color="#444B8C"/>
<stop offset="0.9964" stop-color="#26264F"/>
</linearGradient>
<linearGradient id="paint20_linear_1897_236" x1="35.0947" y1="44.5963" x2="28.8426" y2="82.9576" gradientUnits="userSpaceOnUse">
<stop offset="0.00359712" stop-color="#E38DDD"/>
<stop offset="1" stop-color="#9571F6"/>
</linearGradient>
<linearGradient id="paint21_linear_1897_236" x1="41.6495" y1="42.4057" x2="44.4489" y2="44.691" gradientUnits="userSpaceOnUse">
<stop stop-color="#311944"/>
<stop offset="1" stop-color="#A03976"/>
</linearGradient>
<linearGradient id="paint22_linear_1897_236" x1="39.8585" y1="38.4979" x2="46.2489" y2="40.9324" gradientUnits="userSpaceOnUse">
<stop stop-color="#311944"/>
<stop offset="1" stop-color="#A03976"/>
</linearGradient>
<linearGradient id="paint23_linear_1897_236" x1="54.052" y1="41.6597" x2="65.3172" y2="41.8857" gradientUnits="userSpaceOnUse">
<stop stop-color="#311944"/>
<stop offset="1" stop-color="#A03976"/>
</linearGradient>
<linearGradient id="paint24_linear_1897_236" x1="16.6429" y1="56.5973" x2="15.7471" y2="52.7543" gradientUnits="userSpaceOnUse">
<stop stop-color="#311944"/>
<stop offset="1" stop-color="#A03976"/>
</linearGradient>
<linearGradient id="paint25_linear_1897_236" x1="157.848" y1="171.25" x2="122.512" y2="139.95" gradientUnits="userSpaceOnUse">
<stop stop-color="#FF9085"/>
<stop offset="1" stop-color="#FB6FBB"/>
</linearGradient>
<linearGradient id="paint26_linear_1897_236" x1="155.041" y1="174.433" x2="119.724" y2="143.149" gradientUnits="userSpaceOnUse">
<stop stop-color="#FF9085"/>
<stop offset="1" stop-color="#FB6FBB"/>
</linearGradient>
<linearGradient id="paint27_linear_1897_236" x1="132.898" y1="187.688" x2="135.068" y2="175.48" gradientUnits="userSpaceOnUse">
<stop stop-color="#444B8C"/>
<stop offset="0.9964" stop-color="#26264F"/>
</linearGradient>
<linearGradient id="paint28_linear_1897_236" x1="135.716" y1="185.029" x2="133.48" y2="166.097" gradientUnits="userSpaceOnUse">
<stop stop-color="#FFC444"/>
<stop offset="0.9964" stop-color="#F36F56"/>
</linearGradient>
<linearGradient id="paint29_linear_1897_236" x1="117.473" y1="183.589" x2="118.672" y2="164.563" gradientUnits="userSpaceOnUse">
<stop stop-color="#FFC444"/>
<stop offset="0.9964" stop-color="#F36F56"/>
</linearGradient>
<linearGradient id="paint30_linear_1897_236" x1="116.1" y1="184.224" x2="120.429" y2="172.6" gradientUnits="userSpaceOnUse">
<stop stop-color="#444B8C"/>
<stop offset="0.9964" stop-color="#26264F"/>
</linearGradient>
<linearGradient id="paint31_linear_1897_236" x1="132.501" y1="143.988" x2="138.856" y2="182.904" gradientUnits="userSpaceOnUse">
<stop stop-color="#311944"/>
<stop offset="1" stop-color="#893976"/>
</linearGradient>
<linearGradient id="paint32_linear_1897_236" x1="132.501" y1="143.988" x2="138.856" y2="182.904" gradientUnits="userSpaceOnUse">
<stop stop-color="#311944"/>
<stop offset="1" stop-color="#893976"/>
</linearGradient>
<linearGradient id="paint33_linear_1897_236" x1="100.972" y1="158.124" x2="133.204" y2="158.697" gradientUnits="userSpaceOnUse">
<stop stop-color="#311944"/>
<stop offset="1" stop-color="#893976"/>
</linearGradient>
<linearGradient id="paint34_linear_1897_236" x1="111.336" y1="115.785" x2="138.9" y2="145.747" gradientUnits="userSpaceOnUse">
<stop stop-color="#FF9085"/>
<stop offset="1" stop-color="#FB6FBB"/>
</linearGradient>
<linearGradient id="paint35_linear_1897_236" x1="120.593" y1="104.902" x2="123.285" y2="112.236" gradientUnits="userSpaceOnUse">
<stop stop-color="#FFC444"/>
<stop offset="0.9964" stop-color="#F36F56"/>
</linearGradient>
<linearGradient id="paint36_linear_1897_236" x1="138.018" y1="136.499" x2="128.856" y2="98.4204" gradientUnits="userSpaceOnUse">
<stop stop-color="#444B8C"/>
<stop offset="0.9964" stop-color="#26264F"/>
</linearGradient>
<linearGradient id="paint37_linear_1897_236" x1="118.159" y1="90.841" x2="118.265" y2="97.9443" gradientUnits="userSpaceOnUse">
<stop stop-color="#FFC444"/>
<stop offset="0.9964" stop-color="#F36F56"/>
</linearGradient>
<linearGradient id="paint38_linear_1897_236" x1="100.705" y1="91.1006" x2="100.81" y2="98.204" gradientUnits="userSpaceOnUse">
<stop stop-color="#FFC444"/>
<stop offset="0.9964" stop-color="#F36F56"/>
</linearGradient>
<linearGradient id="paint39_linear_1897_236" x1="64.4828" y1="21.1185" x2="61.9347" y2="56.3198" gradientUnits="userSpaceOnUse">
<stop offset="0.00359712" stop-color="#E38DDD"/>
<stop offset="1" stop-color="#9571F6"/>
</linearGradient>
<linearGradient id="paint40_linear_1897_236" x1="71.09" y1="20.6228" x2="70.1524" y2="33.5753" gradientUnits="userSpaceOnUse">
<stop offset="0.00359712" stop-color="#E38DDD"/>
<stop offset="1" stop-color="#9571F6"/>
</linearGradient>
<linearGradient id="paint41_linear_1897_236" x1="63.4782" y1="11.3639" x2="61.7404" y2="35.3713" gradientUnits="userSpaceOnUse">
<stop offset="0.00359712" stop-color="#E38DDD"/>
<stop offset="1" stop-color="#9571F6"/>
</linearGradient>
<linearGradient id="paint42_linear_1897_236" x1="50.8636" y1="14.2283" x2="48.7206" y2="43.8326" gradientUnits="userSpaceOnUse">
<stop offset="0.00359712" stop-color="#E38DDD"/>
<stop offset="1" stop-color="#9571F6"/>
</linearGradient>
<linearGradient id="paint43_linear_1897_236" x1="37.5972" y1="13.2696" x2="36.3232" y2="30.8703" gradientUnits="userSpaceOnUse">
<stop offset="0.00359712" stop-color="#E38DDD"/>
<stop offset="1" stop-color="#9571F6"/>
</linearGradient>
<clipPath id="clip0_1897_236">
<rect width="185" height="188" fill="white"/>
</clipPath>
</defs>
</svg>
