<svg width="42" height="43" viewBox="0 0 42 43" fill="none" xmlns="http://www.w3.org/2000/svg">
<path d="M37.6791 21.0593C37.6791 20.6475 37.6791 20.2945 37.6212 19.8828C37.1581 18.9415 36.6951 18.0003 36.3478 17.0591C36.1163 16.412 35.6533 15.7061 35.0166 15.5885C34.7272 15.5296 34.38 15.5885 34.0906 15.7649C33.9169 15.8826 33.7433 16.0591 33.6275 16.2356C33.4539 16.5885 33.5118 17.0003 33.6275 17.3532C34.0327 18.2945 34.9587 18.8239 35.306 19.8239C35.5954 20.6475 35.7112 21.5299 35.6533 22.3535C35.5954 23.3535 35.3639 24.4124 34.9587 25.3536C34.7272 25.883 33.1645 28.3537 32.2384 27.7654C31.1387 27.0007 33.1066 23.8241 33.396 23.0005C34.1484 20.9416 32.0069 20.1769 32.0069 20.1769C29.6339 19.471 30.2706 22.2946 30.2706 22.2946C30.56 23.53 30.5021 25.2359 29.9233 26.4125C29.5181 27.2948 28.2448 28.8831 27.1451 28.8243C26.6242 28.7655 26.1612 28.2361 26.5084 27.6478C26.8557 27.0595 27.5503 26.7066 27.8975 26.1183C28.2448 25.5889 28.5342 24.9418 28.65 24.3535C28.7657 23.8829 28.9972 22.9417 28.8236 22.4123C27.6081 19.2357 25.9875 22.9417 25.9875 22.9417C25.293 24.2947 24.3669 26.4713 22.92 27.236C22.6306 27.3537 22.3412 27.4713 21.9939 27.4125C20.4312 27.0007 21.7045 25.7654 22.3412 25.2359C23.1515 24.5888 23.9039 24.0594 24.0197 22.9417C24.3669 18.4121 19.3894 22.0593 19.3894 22.0593C8.50815 31.1774 4.10936 22.0593 4.10936 22.0593L3.76208 24.1182C5.15118 32.2362 12.0966 38.4718 20.4891 38.4718C30.0391 38.2953 37.6791 30.5891 37.6791 21.0593Z" fill="#CE1567"/>
<path d="M20.6627 0C9.26061 0 0 9.41216 0 21.0597C0 32.6484 9.26061 42.1194 20.7206 42.1194C32.1806 42.1194 41.4412 32.7073 41.4412 21.0597C41.3833 9.41216 32.1227 0 20.6627 0ZM20.6627 37.7663C11.5758 37.7663 4.22515 30.2954 4.22515 21.0597C4.22515 11.7652 11.5758 4.2943 20.6627 4.2943C29.7497 4.2943 37.1582 11.7652 37.1582 21.0597C37.1582 30.2954 29.7497 37.7663 20.6627 37.7663Z" fill="#CE1567"/>
<path d="M11.5178 23.589C11.9334 23.589 12.2702 23.2467 12.2702 22.8243C12.2702 22.402 11.9334 22.0596 11.5178 22.0596C11.1023 22.0596 10.7654 22.402 10.7654 22.8243C10.7654 23.2467 11.1023 23.589 11.5178 23.589Z" fill="#CE1567"/>
<path d="M9.26062 20.354C9.93189 20.354 10.4761 19.8009 10.4761 19.1186C10.4761 18.4364 9.93189 17.8833 9.26062 17.8833C8.58934 17.8833 8.04517 18.4364 8.04517 19.1186C8.04517 19.8009 8.58934 20.354 9.26062 20.354Z" fill="#CE1567"/>
<path d="M12.0388 16.2364C13.3174 16.2364 14.3539 15.1829 14.3539 13.8833C14.3539 12.5838 13.3174 11.5303 12.0388 11.5303C10.7602 11.5303 9.72363 12.5838 9.72363 13.8833C9.72363 15.1829 10.7602 16.2364 12.0388 16.2364Z" fill="#CE1567"/>
</svg>
